<?xml version="1.0" encoding="utf-8"?>
<!-- Generator: Adobe Illustrator 22.1.0, SVG Export Plug-In . SVG Version: 6.00 Build 0)  -->
<svg version="1.1" id="Layer_1" xmlns="http://www.w3.org/2000/svg" xmlns:xlink="http://www.w3.org/1999/xlink" x="0px" y="0px"
	 viewBox="0 0 100 45" style="enable-background:new 0 0 100 45;" xml:space="preserve">
<style type="text/css">
	.st0{fill:#973333;}
	.st1{fill:#4D4D4D;}
</style>
<path class="st0" d="M1.5,20.8c1.1,0,2-0.7,2.4-1.7c0.7-1.3,1-2.8,1-4.3v-8C4.8,5.3,5.3,3.7,6.4,2.5c1-1,2.3-1.5,3.6-1.5h2.9v3.2H12
	c-0.7-0.1-1.4,0.3-1.8,0.9C9.8,5.9,9.6,6.8,9.7,7.7v8c0,1-0.1,2-0.4,3c-0.2,0.7-0.5,1.4-0.9,2c-0.3,0.5-0.7,0.9-1.2,1.2
	c-0.4,0.3-0.8,0.4-1.2,0.5v0.1c0.4,0.1,0.8,0.3,1.2,0.5c0.5,0.3,0.9,0.7,1.2,1.2c0.4,0.6,0.7,1.3,0.9,2.1c0.3,1,0.4,2,0.4,3.1v7.9
	c-0.1,0.9,0.1,1.8,0.5,2.6c0.4,0.6,1.1,1,1.8,0.9h1v3.2h-2.9c-1.4,0-2.7-0.5-3.7-1.5c-1.1-1.2-1.6-2.8-1.5-4.4v-8
	c0.1-1.5-0.3-3-1-4.4c-0.4-1-1.3-1.6-2.4-1.7V20.8z"/>
<title>Artboard 1</title>
<path class="st1" d="M21.6,35.2V6.6h4.7v13h0.1l6.9-13H38L31.6,18l7.6,17.1h-5l-5.3-12.7l-2.5,4.1v8.5H21.6z"/>
<path class="st1" d="M41,35.2l7.4-28.6h3.9l7.3,28.6h-4.7L53.5,29h-6.4l-1.4,6.1H41z M52.6,25.2l-2.3-10.4h-0.1L48,25.2L52.6,25.2z"
	/>
<path class="st1" d="M63.8,35.2V6.6h7.6c5.5,0,8.3,2.8,8.3,8.4c0,1.5-0.3,3-0.9,4.3c-0.7,1.3-1.8,2.3-3.2,2.9l5.1,13h-5L71.3,23
	h-2.8v12.2H63.8z M68.5,10.5v8.9h2.7c0.7,0,1.4-0.1,2-0.3c0.5-0.2,0.9-0.5,1.2-0.9c0.3-0.4,0.4-0.9,0.5-1.4c0.1-0.6,0.2-1.3,0.2-1.9
	c0-0.6,0-1.3-0.1-1.9c-0.1-0.5-0.3-1-0.6-1.4c-0.6-0.8-1.7-1.1-3.3-1.1H68.5z"/>
<path class="st0" d="M98.4,24c-1.1,0.1-2,0.7-2.4,1.7c-0.7,1.4-1,2.9-1,4.4v8c0.1,1.6-0.4,3.2-1.5,4.4c-1,1-2.3,1.5-3.7,1.5h-2.8
	v-3.2h1c0.7,0.1,1.4-0.3,1.8-0.9c0.4-0.8,0.6-1.7,0.5-2.6v-7.9c0-1,0.1-2.1,0.4-3.1c0.2-0.7,0.5-1.4,0.9-2.1
	c0.3-0.5,0.7-0.9,1.1-1.2c0.4-0.2,0.8-0.4,1.2-0.5v-0.1c-0.4-0.1-0.8-0.3-1.2-0.5c-0.5-0.3-0.9-0.7-1.2-1.2c-0.4-0.6-0.7-1.3-0.9-2
	c-0.3-1-0.4-2-0.4-3v-8c0-0.9-0.1-1.8-0.5-2.6c-0.4-0.6-1.1-1-1.8-0.9h-1V1h2.9c1.4,0,2.7,0.5,3.7,1.5c1.1,1.2,1.7,2.7,1.6,4.4v8
	c0,1.5,0.3,3,1,4.3c0.4,1,1.4,1.6,2.4,1.7L98.4,24z"/>
</svg>
