<svg id="Layer_1" data-name="Layer 1" xmlns="http://www.w3.org/2000/svg" viewBox="0 0 100 45"><defs><style>.cls-1{fill:#b3b3b3;}.cls-2{fill:#4d4d4d;}.cls-3{fill:#973333;}.cls-4{fill:#ccc;}.cls-5{fill:#999;}.cls-6{fill:gray;}</style></defs><title>Artboard 1</title><path class="cls-1" d="M.33,20.83a2.8,2.8,0,0,0,2.43-1.66,8.56,8.56,0,0,0,1-4.26v-8A5.85,5.85,0,0,1,5.24,2.51,5,5,0,0,1,8.89,1h2.86V4.17H10.8A1.89,1.89,0,0,0,9,5.1a5.22,5.22,0,0,0-.53,2.56v8a10.48,10.48,0,0,1-.37,3,7.71,7.71,0,0,1-.9,2A4.09,4.09,0,0,1,6,21.89a3.64,3.64,0,0,1-1.19.53v.1A4,4,0,0,1,6,23,3.74,3.74,0,0,1,7.2,24.22a7.65,7.65,0,0,1,.9,2.06,11,11,0,0,1,.37,3.07v7.88A5.3,5.3,0,0,0,9,39.84a1.89,1.89,0,0,0,1.8.93h.95v3.17H8.89a5.05,5.05,0,0,1-3.65-1.5,5.87,5.87,0,0,1-1.53-4.37v-8a9,9,0,0,0-1-4.39A2.79,2.79,0,0,0,.33,24Z"/><path class="cls-2" d="M21.65,35.19V6.6h4.7V19.65h.1l6.87-13H38L31.62,18.05l7.61,17.14h-5L28.89,22.5l-2.54,4.14v8.55Z"/><path class="cls-3" d="M41,35.19,48.37,6.6h3.92l7.34,28.59h-4.7l-1.39-6.14H47.12l-1.38,6.14Zm11.63-10-2.3-10.36h-.1L48,25.19Z"/><path class="cls-2" d="M63.79,35.19V6.6h7.57q8.31,0,8.31,8.39a9.39,9.39,0,0,1-.9,4.3,6.54,6.54,0,0,1-3.16,2.85l5.07,13h-5L71.31,23H68.5V35.19ZM68.5,10.46v8.91h2.67a5.37,5.37,0,0,0,2-.3,2.61,2.61,0,0,0,1.15-.86,3.53,3.53,0,0,0,.51-1.39A11.84,11.84,0,0,0,75,14.91a11.71,11.71,0,0,0-.14-1.9,3.56,3.56,0,0,0-.55-1.43c-.59-.75-1.7-1.12-3.33-1.12Z"/><path class="cls-4" d="M99.53,24A2.79,2.79,0,0,0,97.1,25.7a9,9,0,0,0-.95,4.39v8a5.87,5.87,0,0,1-1.53,4.37A5.05,5.05,0,0,1,91,43.94H88.11V40.77h1a1.89,1.89,0,0,0,1.8-.93,5.3,5.3,0,0,0,.53-2.61V29.35a11,11,0,0,1,.37-3.07,7.65,7.65,0,0,1,.9-2.06A3.89,3.89,0,0,1,93.82,23,3.66,3.66,0,0,1,95,22.52v-.1a3.36,3.36,0,0,1-1.22-.53,4.26,4.26,0,0,1-1.16-1.22,7.71,7.71,0,0,1-.9-2,10.48,10.48,0,0,1-.37-3v-8a5.22,5.22,0,0,0-.53-2.56,1.89,1.89,0,0,0-1.8-.93h-1V1H91a5,5,0,0,1,3.65,1.51,5.85,5.85,0,0,1,1.53,4.36v8a8.56,8.56,0,0,0,.95,4.26,2.8,2.8,0,0,0,2.43,1.66Z"/><path class="cls-5" d="M98.36,24a2.8,2.8,0,0,0-2.44,1.69,9,9,0,0,0-1,4.39v8a5.87,5.87,0,0,1-1.53,4.37,5,5,0,0,1-3.65,1.5H86.93V40.77h1a1.89,1.89,0,0,0,1.79-.93,5.19,5.19,0,0,0,.53-2.61V29.35a11.36,11.36,0,0,1,.37-3.07,7.65,7.65,0,0,1,.9-2.06A3.8,3.8,0,0,1,92.65,23a3.54,3.54,0,0,1,1.21-.51v-.1a3.25,3.25,0,0,1-1.21-.53,4.16,4.16,0,0,1-1.17-1.22,7.71,7.71,0,0,1-.9-2,10.85,10.85,0,0,1-.37-3v-8a5.11,5.11,0,0,0-.53-2.56,1.89,1.89,0,0,0-1.79-.93h-1V1h2.86a5,5,0,0,1,3.65,1.51A5.85,5.85,0,0,1,95,6.87v8a8.56,8.56,0,0,0,1,4.26,2.8,2.8,0,0,0,2.44,1.66Z"/><path class="cls-6" d="M1.5,20.83a2.77,2.77,0,0,0,2.43-1.66,8.45,8.45,0,0,0,1-4.26v-8A5.85,5.85,0,0,1,6.42,2.51,5,5,0,0,1,10.07,1h2.86V4.17H12a1.89,1.89,0,0,0-1.79.93,5.11,5.11,0,0,0-.53,2.56v8a10.85,10.85,0,0,1-.37,3,7.71,7.71,0,0,1-.9,2,4.21,4.21,0,0,1-1.19,1.22A3.64,3.64,0,0,1,6,22.42v.1A4,4,0,0,1,7.19,23a3.85,3.85,0,0,1,1.19,1.19,7.65,7.65,0,0,1,.9,2.06,11.36,11.36,0,0,1,.37,3.07v7.88a5.19,5.19,0,0,0,.53,2.61,1.89,1.89,0,0,0,1.79.93h1v3.17H10.07a5,5,0,0,1-3.65-1.5,5.87,5.87,0,0,1-1.53-4.37v-8a8.84,8.84,0,0,0-1-4.39A2.77,2.77,0,0,0,1.5,24Z"/></svg>