<?xml version="1.0" encoding="utf-8"?>
<!-- Generator: Adobe Illustrator 22.1.0, SVG Export Plug-In . SVG Version: 6.00 Build 0)  -->
<svg version="1.1" id="Layer_1" xmlns="http://www.w3.org/2000/svg" xmlns:xlink="http://www.w3.org/1999/xlink" x="0px" y="0px"
	 viewBox="0 0 250 200" style="enable-background:new 0 0 250 200;" xml:space="preserve">
<style type="text/css">
	.st0{fill:#1E660F;}
	.st1{fill:#701C1C;}
</style>
<g>
	<path class="st0" d="M40.3-220.8c0.5-0.5,1-1.2,1.6-1.5c0.6-0.3,1.3-0.4,1.9-0.5c4.1-0.3,7.4-3,8.2-7c0.1-0.6-0.1-1.4-0.5-1.9
		c-5-5.8-8.5-12.3-10.6-19.6c-0.1-0.5-0.3-1-0.5-1.5c-0.9-2.4-1.9-2.8-4.2-1.7c-1,0.5-2.1,0.9-3.1,1.3c-0.1-0.1-0.2-0.3-0.3-0.4
		c0.6-0.6,1.3-1.2,1.9-1.8c1-1.1,2.1-2.1,2.9-3.3c0.9-1.3,1.9-2.4,3.4-2.9c2.6-1,4.4-0.5,6,1.7c1.6,2.2,3.6,3.9,5.9,5.1
		c5.4,2.9,8.2,7.7,9.9,13.4c1.4,4.6,3.6,8.8,6.2,12.8c0.9,1.5,1.9,2.9,2.7,4.4c0.4,0.8,0.6,1.7,0.6,2.6c-0.1,1.3-0.8,2.3-2.2,2.6
		c-1.2,0.3-1.8-0.7-2.3-1.5c-0.8-1.3-1.4-2.6-2.1-3.9c-1.1-2.2-3-3.1-5.4-3.2c-0.9,2.9-1.7,5.7-0.3,8.6c0.3,0.6,0.5,1.2,0.9,1.7
		c1.2,1.6,2,3.3,1.7,5.3c-0.4,2.6-2,4.3-4.2,4.4c-2,0.2-4.4-1.5-5.1-3.7c-0.3-0.9-0.5-1.9-0.9-2.7c-1.5-3.5-4.5-4-7-1.2
		c-3.7,4.1-4.4,9-2.9,14c2.6,8.4,8.7,13.1,17.2,14.3c11,1.5,20.4-2,27.2-11.2c4.3-5.9,4.9-12.6,4.1-19.7c-0.9-7.3-3.6-13.9-6.7-20.4
		c-3-6.1-5.6-12.3-7.4-18.9c-1.9-6.9-1.3-13.5,3.1-19.5c5.1-6.9,14.9-10,23-7.2c4.2,1.5,6.8,4.4,7.4,8.9c0.4,3-1.5,5.6-4.4,6.1
		c-2.8,0.5-5.1-1.6-4.8-4.4c0.1-1.1,0.5-2.1,1-3.1c0.8-2.1,0.3-3.5-1.7-4.5c-4.4-2.1-10.4-0.4-13.5,3.8c-2.7,3.7-3.2,8-2.6,12.4
		c0.6,4.5,2.3,8.6,4.2,12.7c2.9,6.3,6.1,12.5,8.7,19c3.5,8.4,4.2,17.2,1.2,25.9c-4.1,12.1-12.8,19.5-25,22.8
		c-8.3,2.2-16.7,2.2-24.7-1.4c-6.5-2.9-11.1-7.7-12.3-14.9c-1.1-6.9,0.9-12.9,6.4-17.4c1-0.8,1.3-1.6,0.7-2.7
		c-0.5-0.9-1.6-0.8-2.7,0.1c-0.1,0-0.2,0-0.3,0.1C40.5-220.6,40.4-220.7,40.3-220.8z M47.9-222c0,0.1,0,0.3,0,0.4
		c0.5,0.2,1.1,0.5,1.6,0.5c1.7,0.1,3.3,0,5,0.1c1.7,0.1,3.2-0.6,3.4-1.7c0.2-1.2,0.3-2.5,0.3-3.7c0-1-0.2-1.8-1.5-2.1
		c-1.2-0.2-2.1-0.2-2.9,1.1c-0.8,1.3-1.9,2.4-3.1,3.5C49.9-223.2,48.9-222.7,47.9-222z"/>
	<path class="st0" d="M-54-403.2c-2.2,0-4.3,0-6.4,0c-3.4,0-6.7-0.1-10.1-0.1c-3.3,0-6.5,0.3-9.5,1.9c-4.8,2.7-5.9,8.3-2.3,12.5
		c1.7,2,1.7,3.4,0.2,4.8c-1.3,1.2-3.8,0.8-5.3-0.8c-1.9-1.9-2.1-4.3-1.7-6.7c1.3-7.9,6.9-13.1,14.4-15.1c3.7-1,7.5-1.1,11.3-1
		c3,0,6,0.2,8.9,0.2c2.9,0,5.8,0,8.5,0c-0.8,8.4-1.7,16.8-2.4,25.2c-0.7,8.4-1.1,16.8-1.3,25.4c0.3-0.3,0.6-0.6,0.9-0.9
		c7.4-9,14.9-18,22.3-27.1c4.9-6,9.8-11.9,14.7-17.9c1-1.2,1.8-2.6,2.7-3.9c0.5-0.8,1-1.1,2-1.1c4.3,0,8.5-0.1,12.8-0.1
		c0.7,0,1.7-0.4,1.8,0.8c0.1,1.1-0.7,1.3-1.6,1.4c-1.6,0.3-3.2,0.6-4.8,1c-2.1,0.5-3.6,1.7-4.4,3.6c-2,4.8-3.9,9.7-5.6,14.6
		c-3.3,9.2-6.4,18.4-9.5,27.6c-0.8,2.4-1.5,5-1.9,7.5c-0.4,2.4,0.5,3.4,2.9,3.8c0.9,0.2,1.8,0.2,2.7,0.3c0.7,0.1,1.4,0,1.3,1.1
		c-0.1,0.9-0.5,1.2-1.5,1.2c-4.4-0.1-8.7-0.2-13.1-0.2c-2.6,0-5.3,0.1-7.9,0.2c-0.7,0-1.4,0-1.4-0.9c0-0.9,0.4-1.2,1.2-1.2
		c0.6,0,1.2-0.2,1.9-0.2c3.4,0,5.4-1.9,6.5-4.9c1.6-4.4,3.1-8.8,4.7-13.1c2.3-6.2,4.7-12.4,7-18.6c1.6-4.3,3.2-8.7,4.8-13.1
		c0.1-0.3,0.2-0.6,0-1.1c-0.4,0.4-0.9,0.8-1.2,1.2c-6.2,7.3-12.5,14.5-18.5,21.9c-8.1,10.1-16,20.3-23.9,30.5
		c-0.5,0.7-1,1.1-1.9,0.8c-0.9-0.4-1-1-0.9-1.8c0.5-4.8,1-9.6,1.4-14.4c0.9-9.9,1.9-19.7,2.8-29.6c0.3-2.8,0.4-5.6,0.3-8.5
		c-0.5,1-1.1,2-1.6,3.1c-6.2,13.4-14,25.8-23.5,37.1c-6.2,7.4-13.5,13.3-22.8,16.2c-9.1,2.9-18.1,2.9-26.7-1.7
		c-7.1-3.8-11.8-9.8-14-17.6c-1.5-5.3-1.6-10.7,0.1-16c1.4-4.4,3.6-8.5,7.7-11.1c1.7-1.1,3.4-1.7,5.5-1.4c1.5,0.3,2.7,1.4,2.8,2.9
		c0.2,1.6-0.7,3-2.3,3.4c-7.2,1.9-11.2,9.3-11.1,16c0.2,10.3,4.9,17.8,14.5,21.9c2.4,1,5.2,1.3,7.9,1.5c7.1,0.4,13.7-1.1,19.8-4.8
		c4.9-3,9.2-6.7,13.1-11c2.5-2.7,5.1-5.4,7.5-8.2c2.8-3.3,5.6-6.7,8-10.3c3.2-4.7,6.3-9.5,9.2-14.4c1.9-3.2,3.4-6.6,5-10
		C-54-402.5-54-402.7-54-403.2z"/>
	<path class="st0" d="M80.4-125.2c-1,0.7-1.8,1.5-2.9,2.2c-3.9,2.4-8.1,3.6-12.6,4.2c-6.7,0.9-13.4,0.9-19.7-1.7
		c-6.9-2.8-12.8-6.9-16.1-13.8c-2.9-6-2.6-12.2-0.1-18.3c3.9-9.4,11.2-14.9,20.9-17.5c10-2.7,19.9-1.4,29.6,1.8
		c1.1,0.4,1.8,0.2,2.5-0.6c6.2-7.6,14.4-12,23.9-13.7c5.6-1,11.2-1.2,16.8-0.5c0.9,0.1,1.7,0,2.6,0c2.5,0,4.9,0.6,7.2,1.8
		c2.8,1.4,5.8,2.4,8.6,3.7c8.4,4.1,15.7,9.8,22.1,16.7c2.2,2.4,4.2,4.9,6.2,7.4c0.3,0.4,0.4,0.8,0.6,1.3c-0.1,0.1-0.2,0.2-0.4,0.3
		c-1-1-2-1.9-2.9-2.9c-6.4-7.4-14.1-13.3-23-17.4c-9.7-4.5-20-5.9-30.6-5.4c-6.7,0.3-13.2,1.3-19.4,4c-3.9,1.6-7.3,3.9-10.4,7.2
		c8.1,4.1,15.1,9.4,20.6,16.7c1.2-1.7,2.3-3.3,3.6-4.7c7.6-8.8,21.3-11.9,31.5-6.6c9.2,4.8,13.3,16.2,8.8,25.7
		c-2.9,6-7.7,9.9-13.7,12.4c-10.3,4.4-20.8,4.5-31.5,2c-7.4-1.8-14.2-4.8-19.7-10.2c-7-6.7-9.3-14.9-7.3-24.3
		c0.6-2.7,1.6-5.4,2.5-8.3c-2.5-0.4-5.2-0.9-7.9-1.2c-7.8-0.9-15.6-1-23.3,1.4c-5.7,1.8-10.9,4.4-14.5,9.4
		c-4.4,6.3-4.9,13.1-1.8,20.1c2.8,6.2,8,9.8,14.1,12.2c6,2.4,12.2,3.1,18.5,2c3.9-0.7,7.7-1.8,11.5-2.9c1.3-0.4,2.5-1.3,3.7-1.9
		c0.5-0.3,1-0.5,1.6-0.8C80.2-125.5,80.3-125.4,80.4-125.2z M115.9-121.1c7.1,0.1,15.3-1.7,21.6-5.7c6.7-4.2,10.7-9.9,9.8-18.2
		c-0.6-5.3-3.5-9.2-7.7-12.1c-4.4-3.1-9.4-4.2-14.8-3.6c-7.8,0.8-14.4,3.8-19.1,10.4c-0.7,1-1,1.8-0.1,2.8c0.6,0.7,1,1.5,1.4,2.3
		c1,2.1,0.4,4.7-1.2,6c-0.9,0.8-1.9,0.7-2.5-0.2c-0.7-1.1-1.4-2.3-1.4-3.5c0-1.6,0.5-3.2,1-4.7c0.4-1,0.3-1.6-0.4-2.3
		c-1.2-1.1-2.2-2.2-3.5-3.2c-4.8-3.9-10.2-6.9-16-9.2c-2.4-1-2.5-1-3.7,1.4c-0.3,0.6-0.6,1.1-0.8,1.7c-2.1,5.5-3,11.1-1.2,16.8
		c2.3,7.2,7.5,12,13.8,15.5C98.9-122.8,107.2-121.1,115.9-121.1z"/>
	<path class="st0" d="M214.5-355.1c0.2-0.9,0.4-1.7,0.5-2.6c0.4-4.7,0.9-9.4,1.2-14.2c0.2-2.5-1.1-3.9-3.5-4.6
		c-0.7-0.2-1.4-0.4-2-0.7c-0.3-0.1-0.5-0.5-0.7-0.8c0.3-0.2,0.5-0.6,0.9-0.7c0.3-0.1,0.8-0.1,1.1-0.1c3.2,0,6.4,0,9.6,0.1
		c0.5,0,1,0.4,1.4,0.6c-0.3,0.4-0.6,1-1,1.2c-2,0.9-2.8,2.4-3,4.5c-1,8.5-2.1,17-3.2,25.4c-0.1,0.8-0.2,1.6-0.3,2.4
		c-0.2,0.1-0.3,0.1-0.5,0.2c-6.7-8.9-13.3-17.8-20.3-27.1c-0.3,0.9-0.5,1.4-0.5,1.9c-0.5,5.8-1.1,11.6-1.5,17.4
		c-0.2,3.2,0.8,4.4,3.9,5.2c0.6,0.1,1.1,0.2,1.6,0.5c0.2,0.1,0.5,0.6,0.4,0.8c0,0.2-0.5,0.4-0.7,0.4c-4.1,0-8.3-0.1-12.4-0.1
		c-2.9,0-5.8,0-8.6,0c-0.5,0-1,0.1-1.4,0c-0.6-0.2-1.1-0.5-1.7-0.8c0.4-0.3,0.9-0.7,1.3-0.9c1.6-0.6,2.1-1.2,1.8-2.9
		c-0.4-2.1-1.2-4.2-1.9-6.3c-0.1-0.4-0.9-0.8-1.3-0.8c-3-0.1-6.1-0.2-9.1-0.1c-0.8,0-1.8,0.7-2.2,1.4c-1,1.7-1.7,3.5-2.4,5.4
		c-0.5,1.4,0.1,2.3,1.5,2.8c0.6,0.2,1.2,0.3,1.8,0.5c0.5,0.3,0.9,0.7,1.3,1.1c-0.5,0.2-1,0.6-1.4,0.6c-4.3,0-8.5-0.1-12.8-0.1
		c-2,0-3.9,0.1-5.9,0.1c-0.9,0-1.8-0.2-2.7-0.3c0-0.2,0-0.4-0.1-0.5c0.4-0.3,0.8-0.7,1.2-0.8c2-0.5,2.6-2,2.8-3.9c0.3-3,0.5-6,0.8-9
		c0.1-0.9-0.2-1.5-1.2-1.5c-4.1,0-8.3-0.1-12.4,0c-0.5,0-1.2,0.7-1.3,1.2c-0.5,3.4-0.8,6.8-1.1,10.2c-0.1,1.5,0.9,2.4,2.6,3
		c0.7,0.2,1.3,0.7,2,1.1c-0.7,0.2-1.4,0.6-2.1,0.6c-3.4,0.1-6.7,0-10.1,0c-0.5,0-1,0-1.4-0.2c-0.6-0.2-0.8-0.9-0.1-1.1
		c3.6-1,3.4-4,3.7-6.7c0.7-5.4,1.3-10.7,2-16.1c0.2-1.4,0.4-2.8,0.5-4.1c0.1-1.8-0.6-2.7-2.2-3.4c-0.7-0.3-1.2-0.9-1.8-1.3
		c0.7-0.2,1.4-0.4,2.1-0.5c3.2-0.1,6.3-0.1,9.5,0c0.6,0,1.2,0.3,1.8,0.5c-0.4,0.4-0.8,1-1.3,1.2c-1.4,0.6-2,1.5-2.2,2.9
		c-0.4,2.9-0.7,5.8-1.2,8.7c-0.2,1.2,0.2,1.7,1.4,1.7c3.9,0,7.9,0,11.8,0c1,0,1.6-0.5,1.7-1.4c0.3-3.1,0.6-6.2,0.8-9.3
		c0.1-1.6-1.1-2.2-2.4-2.7c-0.6-0.2-1-0.7-1.5-1.1c0.6-0.2,1.3-0.5,1.9-0.5c3.3-0.1,6.6-0.1,9.9-0.1c0.5,0,1.1,0.3,1.6,0.5
		c-0.4,0.4-0.7,1-1.2,1.2c-1.5,0.6-2.2,1.5-2.4,3.1c-0.7,7.4-1.5,14.7-2.2,22.1c-0.1,0.7,0,1.3,0,2c0,1.3,0.7,2.1,1.8,2.5
		c1.2,0.4,2-0.2,2.6-1.1c1.3-2.1,2.4-4.3,3.6-6.4c3.2-5.8,6.5-11.7,9.7-17.5c1.1-2.1,2.2-4.2,3.3-6.2c0.2-0.4,0.7-0.7,1-1
		c0.3,0.4,0.7,0.7,0.8,1.1c2.8,8.8,5.5,17.6,8.3,26.4c0.5,1.5,0.9,3.2,2.3,4.2c1.7,1.2,3,1,3.9-0.8c0.4-0.8,0.8-1.8,1-2.7
		c0.9-6.2,1.7-12.3,2.4-18.5c0.4-3.5-0.9-5.5-4.3-6.6c-0.5-0.2-1-0.3-1.5-0.5c-0.4-0.2-0.6-0.6-0.9-0.9c0.5-0.2,0.9-0.7,1.4-0.7
		c1.1,0,2.2,0.2,3.3,0.2c1.3,0,2.6,0,3.9-0.1c1.2-0.1,2.1,0.3,2.8,1.3c5.4,7.2,10.8,14.4,16.2,21.5c0.3,0.4,0.4,0.9,0.6,1.3
		C214.1-354.8,214.3-354.9,214.5-355.1z M170.8-370.7c-0.5,0.6-0.9,0.9-1.1,1.2c-1.5,2.8-2.9,5.6-4.4,8.4c-0.5,0.9-0.1,1.4,0.7,1.4
		c2.4,0.1,4.8,0.1,7.2,0c0.9,0,1.3-0.6,0.9-1.6c-0.5-1.5-1-3.1-1.5-4.6C172-367.4,171.5-368.9,170.8-370.7z"/>
	<path class="st0" d="M-27.8-328.7c-5.3,0.1-10.4,0.3-15.5,0.3c-4.1,0.1-8.3-0.1-12.3,1.1c-2.1,0.6-4.3,1.3-6.1,2.5
		c-3.6,2.3-4,6.4-1.3,9.2c0.3,0.3,0.6,0.6,1,0.8c2,1.2,2.6,2.6,1.7,4.6c-0.7,1.7-3,2.7-4.9,2.1c-2.1-0.6-3.8-2.7-4-4.9
		c-0.4-6.3,2.2-11.1,7.2-14.8c5-3.7,10.7-5.1,16.7-5.5c6.6-0.4,13.2-0.3,19.7-0.5c1.1,0,2.2-0.5,3.3-0.6c0.6-0.1,1.1,0.1,2.1,0.1
		c-1.4,1.8-2.5,3.2-3.6,4.6c-6.2,8-11.2,16.7-14.5,26.4c-1.8,5.2-2.6,10.5-1.9,16c1,8.7,7.1,13,15.7,11.1c4.9-1.1,8.9-3.8,12.5-7.1
		c3.7-3.4,7-7.2,9.4-11.7c2.2-4,3.9-8.2,4.8-12.7c0.6-3,1.3-6.1,1.4-9.2c0.2-4.7-0.4-9.4-2.1-14c-0.8-2.1,0.2-4,2.1-4.7
		c1.8-0.7,4,0.4,4.8,2.4c1.3,3,1.4,6.2,1.4,9.5c0,6.7-1.8,13-4.2,19.2c-3.5,9-8.5,17.2-15.6,23.9c-5.4,5.1-11.5,9-19,10.1
		c-4.1,0.6-8.2,0.3-11.8-2.2c-3.4-2.3-5.3-5.5-6.3-9.5c-1-4.4-0.3-8.7,0.8-12.9c1.9-7.6,5.7-14.4,9.8-21c2.5-4.1,5.4-7.9,8.2-11.8
		C-28.1-328.1-27.9-328.4-27.8-328.7z"/>
	<path class="st0" d="M106.4-292.8c-1.7,0-3.4,0.1-5,0c-0.5,0-1-0.4-1.5-0.7c0.4-0.3,0.7-0.8,1.2-1c2.1-0.7,2-1.2,1.8-3.2
		c-0.2-1.7-0.8-3.4-1.3-5.1c-0.4-1.2-1.1-1.9-2.5-1.9c-2.7,0-5.5-0.1-8.2,0c-0.8,0-1.8,0.6-2.2,1.2c-1,1.6-1.8,3.4-2.4,5.2
		c-0.6,1.8,0.1,2.8,1.9,3.4c0.5,0.2,1.1,0.2,1.5,0.4c0.4,0.2,0.7,0.7,1,1c-0.4,0.2-0.8,0.6-1.3,0.6c-2.2,0-4.3-0.1-6.5-0.1
		c-7,0-14,0-21,0c-0.9,0-1.8,0.1-2.7,0c-0.3,0-0.7-0.5-0.8-0.8c-0.1-0.2,0.3-0.8,0.6-0.8c3-0.6,3.3-3,3.6-5.3
		c0.7-5.8,1.4-11.7,2.1-17.6c0.1-1.2,0.4-2.5,0.4-3.7c0.1-2-0.5-2.7-2.5-3.3c-0.3-0.1-0.6-0.1-0.8-0.2c-0.4-0.2-0.7-0.6-1-0.8
		c0.4-0.2,0.7-0.7,1.1-0.7c1.4-0.1,2.8,0.1,4.2,0.1c2.4,0,4.8-0.1,7.2-0.1c0.4,0,0.9,0.4,1.3,0.6c-0.3,0.4-0.6,0.9-1,1
		c-1.9,0.7-2.6,2.1-2.8,4c-0.7,6.9-1.4,13.9-2.1,20.8c-0.3,3.3,0.7,4.5,4.1,4.6c4.7,0,8.9-1.4,11.7-5.3c1.5-2,2.5-4.3,3.7-6.5
		c3.2-5.8,6.3-11.5,9.5-17.3c0.3-0.6,0.6-1.2,0.9-1.8c0.2-0.4,0.6-0.7,0.9-1c0.3,0.4,0.7,0.7,0.8,1.1c0.9,2.7,1.7,5.5,2.6,8.2
		c2,6.4,3.9,12.7,6,19.1c0.7,2.2,1.9,3.9,4.5,4c0.4,0,0.7,0.7,1.1,1.1c-0.4,0.2-0.8,0.7-1.3,0.7
		C110.9-292.7,108.7-292.8,106.4-292.8C106.4-292.8,106.4-292.8,106.4-292.8z M96.7-317.9c-0.4,0.3-0.6,0.3-0.7,0.5
		c-1.6,3-3.3,6.1-4.9,9.1c-0.4,0.8,0,1.3,0.8,1.3c2.3,0.1,4.7,0.1,7,0c0.8,0,1.2-0.6,1-1.4c-0.3-1.3-0.7-2.6-1.1-3.8
		C98.2-314.1,97.5-316,96.7-317.9z"/>
	<path class="st0" d="M208.4-312.3c-0.6-3.8-0.9-7.5,1.2-10.9c1.7-2.8,4.1-4.5,7.4-4.9c2.2-0.2,4,2.1,3.6,4.3
		c-0.8,4.4-3.8,7.2-7,9.8c-0.3,0.2-0.5,0.4-0.8,0.6c-0.2,0.2-0.5,0.3-0.9,0.7c1.4,2.3,2.9,4.7,4.6,7.5c3.7-3.8,7-7.6,10.7-11.2
		c4.3-4.1,8.6-8.4,14.1-10.9c2.4-1.1,4.9-1.9,7.8-1.4c3.9,0.7,4.4,4.7,2.1,7.3c-0.7,0.7-1.6,1.4-2.6,1.7c-1.4,0.4-2.4-0.5-2.4-2
		c0-0.7,0-1.4,0-2.2c0-1.7-1.2-2.7-2.8-2c-2.3,1.1-4.6,2.3-6.7,3.8c-6,4.3-11,9.8-16.2,15c-1,1-2.1,1.9-3.2,2.9
		c2.1,2.9,3.8,5.9,4.5,9.4c1.3,5.8,0.2,11.2-3.8,15.8c-4.6,5.4-10.4,7.9-17.4,7.4c-2.6-0.2-5-1.2-6.1-3.9c-0.2-0.5-0.2-1.1-0.2-1.6
		c0.1,0,0.2-0.1,0.4-0.1c0.2,0.1,0.4,0.3,0.5,0.4c1.2,2.5,3.4,3.4,6,3.5c6.3,0.3,10.7-2.8,13.6-8.1c1.9-3.5,2.3-7.5,1.5-11.5
		c-0.6-2.7-1.4-5.4-2.1-8.2c-2.8,1.9-5.1,3.7-7.6,5.2c-3.5,2.1-7.3,3.8-11.5,3.8c-3.3,0-5.2-2.6-4.2-5.9c1.1-3.5,3.6-5.8,6.5-7.7
		c3.2-2.1,6.6-3.9,10-5.9C207.5-311.7,207.9-312,208.4-312.3z M208.7-310.8c-2.4,1.8-5,3.5-7.4,5.5c-1.9,1.5-3.6,3.3-4.5,5.6
		c-0.5,1.2-0.8,2.4,0.2,3.5c1,1,2.3,0.9,3.6,0.5c4.4-1.2,8-3.7,11.5-6.4c0.2-0.2,0.3-0.9,0.1-1.3C211.1-305.9,210-308.3,208.7-310.8
		z M211.5-314.4c0.4-0.3,0.8-0.5,1.1-0.8c2.6-2.1,5-4.3,6-7.6c0.3-1,0.2-1.9-0.5-2.5c-0.8-0.7-1.7-0.6-2.6-0.1
		C212.1-323.6,210.2-318.9,211.5-314.4z"/>
	<path class="st0" d="M102.8-195.6c0-0.8,0-1.3,0-2.1c0.6,0,1.1-0.1,1.6-0.1c1.7,0,2.1-0.3,2.1-2c0-9.4,0.1-18.7,0.1-28.1
		c0-1.2-0.5-2-1.5-2.6c-0.5-0.3-1.1-0.6-1.6-0.9c-0.7-0.6-0.8-1.2,0.1-1.7c2.4-1.1,4.7-2.1,7.1-3.1c1-0.4,1.4-0.1,1.6,0.9
		c0.1,0.7,0.2,1.4,0.3,2.3c0.4-0.4,0.7-0.6,1.1-0.9c3.1-2.5,6.5-3.5,10.2-2c3.6,1.5,5.9,4.3,6.4,8.2c0.6,4.3-0.2,8.3-2.9,11.9
		c-3,4.1-8,5.7-13,4.3c-0.5-0.1-1-0.3-1.6-0.4c0,1.5,0,2.9,0,4.2c0,2.4,0,4.7,0.1,7.1c0.1,2.4,0.3,2.6,2.6,2.7
		c0.4,0,0.8,0.1,1.4,0.1c0,0.7,0,1.3,0,1.9c-0.3,0.1-0.5,0.1-0.7,0.1C111.7-195.6,107.3-195.6,102.8-195.6z M124.7-221.6
		c-0.1,0-0.3-0.1-0.4-0.1c0-3.6-0.9-6.9-2.4-8.9c-2.2-2.9-6.4-3.1-8.8-0.4c-0.3,0.4-0.6,1-0.6,1.5c0,3.9-0.1,7.8,0,11.7
		c0,0.9,0.2,2,0.8,2.7c2.1,3,7.7,2.8,9.4-0.4C123.8-217.4,124.1-219.6,124.7-221.6z"/>
	<path class="st0" d="M134-293.9c-2,0.5-3.8,1.1-5.6,1.3c-4.5,0.6-8.6-0.5-11.8-3.7c-1.2-1.2-2.2-2.9-2.8-4.6
		c-2-5.8-1.7-11.7,1.4-17.1c4.2-7.4,12.8-10.3,20.8-7.4c0.9,0.3,1.8,0.7,2.7,1.1c1,0.4,2,1,3-0.2c0.5-0.6,1.2-0.3,1.2,0.6
		c0,3,0,6.1-0.1,9.1c0,0.3-0.4,0.7-0.6,1c-0.4-0.2-0.9-0.4-1.1-0.7c-0.8-1.5-1.4-3.2-2.3-4.6c-2.9-4.9-8.5-6.7-13.3-4.4
		c-2.3,1.1-3.8,3.1-4.6,5.3c-2.2,5.8-2.8,11.7-0.8,17.6c1.4,4.5,5.2,6.8,9.8,6c2.3-0.4,4.1-1.5,4.7-3.9c0.4-1.7,0.8-3.5,0.8-5.2
		c0.1-2.3-0.8-3-3-3.6c-0.7-0.2-1.3-0.7-1.9-1.1c0.7-0.2,1.4-0.5,2.2-0.6c3.5-0.1,6.9,0,10.4,0c0.6,0,1.2,0.5,1.8,0.7
		c-0.5,0.4-0.9,1-1.4,1.1c-1.4,0.4-2.1,1.2-2.3,2.6c-0.6,3.9-1,7.9-1.8,11.8c-0.4,2.1-1.3,4.1-2.4,5.9c-1.7,2.8-5.5,3.7-8.6,2.5
		c-1.7-0.7-2.5-2.1-1.9-3.6c0.2-0.6,1.1-1.1,1.7-1.3c0.3-0.1,0.9,0.7,1.2,1.2c0.2,0.3,0.1,0.8,0.3,1.1c0.4,0.4,0.9,1,1.4,1
		c0.6,0.1,1.5-0.2,1.7-0.7C133.9-288.8,133.8-291.4,134-293.9z"/>
	<path class="st0" d="M93.5-397.6c-2.6,0-5.2,0.1-7.8,0c-0.6,0-1.2-0.6-1.8-0.9c0.5-0.5,0.9-1.1,1.4-1.4c1.7-0.8,2.9-1.7,3.2-3.8
		c0.7-6,1.5-12,2.3-18c0.5-3.9,1.1-7.9,1.5-11.8c0.1-1.1,0.3-2.3,0-3.4c-0.4-1.7-1.6-2.6-3.3-3c-0.9-0.2-2.2-0.3-1.9-1.6
		c0.1-0.4,1.5-0.7,2.3-0.7c4.5-0.1,9-0.1,13.5,0c0.9,0,2.1-0.5,2.4,0.7c0.3,1.2-1,1.3-1.8,1.6c-2.2,0.8-3.2,2.3-3.4,4.6
		c-0.9,8.3-1.9,16.5-2.9,24.7c-0.2,2.1-0.4,4.3-0.5,6.5c-0.1,2.1,0.9,3.3,2.9,3.9c0.7,0.2,1.5,0.3,2.2,0.6c0.5,0.2,0.8,0.8,1.1,1.2
		c-0.5,0.3-0.9,0.7-1.4,0.7C99-397.6,96.3-397.6,93.5-397.6C93.5-397.6,93.5-397.6,93.5-397.6z"/>
	<path class="st0" d="M25.2-365.2c0,7.9-1.9,12.8-6.4,16.5c-6.4,5.1-17.6,5-23.5-0.5c-3.1-2.9-4.4-6.7-4.4-10.8c0-5,1.6-9.5,5-13.3
		c6.3-6.9,17.7-8.1,24.7-1.5C23.9-371.6,25.2-367.5,25.2-365.2z M-2.9-360.3c0.5,2.5,0.8,5,1.7,7.4c1.8,5,7.1,7.4,12.1,5.6
		c4.8-1.7,6.7-5.7,7.5-10.3c0.5-2.6,0.5-5.4,0.4-8.1c-0.1-3.5-1.2-6.8-3.8-9.2c-4.2-4-10.5-3.2-14,1.8
		C-1.8-369.3-2.5-364.9-2.9-360.3z"/>
	<path class="st0" d="M133.1-396.7c-6.6-8.9-13.3-17.9-20.2-27.2c-0.2,0.8-0.4,1.1-0.4,1.5c-0.5,5.9-1.1,11.8-1.5,17.6
		c-0.3,3.4,0.7,4.6,4,5.4c0.4,0.1,0.9,0.1,1.2,0.3c0.3,0.2,0.5,0.5,0.8,0.8c-0.3,0.2-0.7,0.5-1,0.6c-0.8,0-1.6-0.1-2.4-0.1
		c-2.8,0-5.6,0.1-8.4,0.1c-0.5,0-0.9,0-1.8,0c0.5-0.6,0.7-1.2,1-1.3c2.8-1,3.6-3.2,3.9-5.8c0.7-5.7,1.5-11.3,2.2-16.9
		c0.5-4.3-0.7-6-4.8-7.4c-0.7-0.2-2-0.2-1.7-1.4c0.1-0.3,1.4-0.5,2.1-0.5c2.1-0.1,4.1,0,6.2-0.1c1.2-0.1,2.1,0.2,3,1.3
		c5.4,7.3,10.9,14.6,16.4,21.9c0.1,0.2,0.3,0.4,0.6,0.7c0.3-0.5,0.6-0.8,0.7-1.2c0.5-5,1.2-10.1,1.5-15.2c0.2-3.4-1.1-4.7-4.4-5.6
		c-0.7-0.2-1.8-0.9-1.8-1.1c0.2-1.2,1.3-0.7,2.1-0.7c3,0,6,0,9.1,0c0.6,0,1.1,0.3,1.7,0.4c-0.4,0.5-0.6,1.2-1.1,1.4
		c-1.9,0.7-2.6,2.2-2.8,4c-0.9,7.4-1.8,14.9-2.7,22.3c-0.2,2-0.5,4-0.8,6C133.5-396.9,133.3-396.8,133.1-396.7z"/>
	<path class="st0" d="M171.4-407.4c0.2-1.3,0.6-2.7,0.7-4c0.4-3.8,0.7-7.5,1.1-11.3c0.3-3.7-0.9-5.7-4.8-6.6
		c-0.5-0.1-0.9-0.7-1.4-1.1c0.5-0.2,1-0.6,1.6-0.6c3.3,0,6.6,0,9.9,0c0.5,0,1,0.3,1.5,0.5c-0.4,0.4-0.6,1.1-1.1,1.3
		c-1.9,0.8-2.7,2.2-2.9,4.1c-1.1,9.2-2.3,18.4-3.4,27.6c0,0.2-0.1,0.4-0.1,0.9c-0.6-0.5-1.1-0.8-1.4-1.3c-3.1-4.2-6.2-8.4-9.3-12.6
		c-3-4.1-6-8.2-9-12.3c-0.2-0.3-0.5-0.6-1-1.1c-0.2,0.8-0.4,1.3-0.4,1.9c-0.5,5.8-1.1,11.6-1.5,17.4c-0.3,3.2,0.8,4.4,3.9,5.2
		c0.8,0.2,1.4,0.7,2.1,1.1c-0.8,0.2-1.5,0.5-2.3,0.5c-3.2,0.1-6.3,0.1-9.5,0.1c-0.5,0-0.9-0.3-1.4-0.4c0.3-0.4,0.6-0.9,1-1.1
		c1.9-0.9,3-2.4,3.2-4.4c0.9-6.4,1.8-12.8,2.6-19.3c0.3-2.5-0.8-4.9-3.5-5.8c-0.9-0.3-1.7-0.6-2.6-1c-0.3-0.2-0.5-0.6-0.7-0.9
		c0.3-0.2,0.7-0.6,1-0.6c2.8,0,5.6-0.1,8.3,0.1c0.6,0,1.4,0.6,1.8,1.2c5.1,6.7,10.2,13.5,15.3,20.2c0.6,0.8,1.2,1.5,1.9,2.3
		C171.1-407.4,171.2-407.4,171.4-407.4z"/>
	<path class="st0" d="M267-354.7c0.2-1.3,0.4-2.2,0.5-3.1c0.4-4.2,0.9-8.4,1.2-12.6c0.3-4-0.6-5.2-4.4-6.4c-0.1,0-0.2,0-0.3-0.1
		c-0.5-0.3-0.9-0.7-1.4-1c0.6-0.3,1.2-0.7,1.8-0.7c3.2-0.1,6.4-0.1,9.6,0c0.5,0,1.1,0.4,1.6,0.5c-0.4,0.5-0.6,1.1-1.1,1.3
		c-2.2,0.9-2.8,2.6-3,4.7c-1.1,8.9-2.2,17.7-3.3,26.6c0,0.3-0.2,0.6-0.2,0.9c-0.1,0.1-0.3,0.1-0.4,0.2c-6.6-8.9-13.2-17.8-19.9-26.7
		c-0.1,0.1-0.3,0.1-0.4,0.2c-0.1,0.4-0.2,0.7-0.2,1.1c-0.5,6-1.1,11.9-1.6,17.9c-0.2,2.9,1,4.2,3.8,4.9c0.8,0.2,1.5,0.8,2.2,1.2
		c-0.8,0.2-1.6,0.5-2.4,0.5c-3.1,0.1-6.1,0.1-9.2,0.1c-0.5,0-1.1-0.1-1.6-0.2c0-0.1-0.1-0.3-0.1-0.4c0.4-0.3,0.8-0.7,1.3-0.9
		c1.9-0.8,2.8-2.3,3.1-4.2c0.9-6.1,1.7-12.2,2.5-18.2c0.5-4.3-0.8-6.3-4.8-7.4c-0.7-0.2-1.9-1-1.8-1.2c0.3-1.2,1.4-0.7,2.2-0.7
		c2.2,0,4.3,0,6.5-0.1c1.2,0,2,0.3,2.7,1.3c5.3,7.2,10.7,14.4,16.1,21.6C266.1-355.4,266.4-355.2,267-354.7z"/>
	<path class="st0" d="M55.8-355.1c0.1-1,0.3-2,0.4-3c0.4-4.4,0.9-8.8,1.2-13.1c0.2-3.3-0.9-4.5-4.1-5.4c-0.2-0.1-0.4-0.1-0.5-0.2
		c-0.5-0.4-1-0.8-1.5-1.2c0.6-0.2,1.2-0.7,1.7-0.7c3.4,0,6.7,0,10.1,0.1c0.4,0,0.8,0.3,1.2,0.5c-0.2,0.4-0.4,1-0.7,1.1
		c-2.7,0.9-3.2,3.2-3.5,5.6c-1,8.6-2,17.2-3.1,25.7c0,0.4-0.2,0.7-0.7,1.3c-6.7-8.9-13.3-17.8-20.2-27c-0.2,0.8-0.4,1.2-0.4,1.6
		c-0.5,5.8-1.1,11.7-1.5,17.5c-0.2,3.5,0.6,4.3,3.9,5.3c0.7,0.2,1.3,0.8,2,1.2c-0.7,0.1-1.4,0.4-2.2,0.4c-3.1,0.1-6.2,0.1-9.4,0.1
		c-0.5,0-1,0-1.5,0c-0.1-0.2-0.2-0.3-0.2-0.5c0.4-0.3,0.7-0.8,1.1-1c2.2-0.7,3.1-2.5,3.4-4.5c0.9-6.2,1.7-12.3,2.4-18.5
		c0.4-3.8-1-5.9-4.7-6.9c-0.7-0.2-1.9-1.1-1.8-1.4c0.3-1.1,1.3-0.6,2.2-0.6c2,0,4,0.1,6,0c1.4-0.1,2.3,0.4,3.1,1.5
		c5.1,6.9,10.3,13.8,15.5,20.6c0.4,0.5,0.9,1,1.4,1.5C55.5-355.1,55.7-355.1,55.8-355.1z"/>
	<path class="st0" d="M172.3-301.1c0.2,0.3,0.3,0.3,0.4,0.4c0.7,3.1-3,7.9-6.1,7.9c-4.8,0-9.5-0.1-14.3-0.1c-2.5,0-5,0.1-7.5,0.1
		c-0.4,0-0.9-0.3-1.3-0.5c0.3-0.4,0.6-0.9,1-1c2.2-0.5,2.8-2,3.1-4.1c0.9-7.1,1.8-14.3,2.8-21.4c0.1-0.6,0.1-1.2,0.1-1.9
		c0.1-1.8-0.4-2.5-2.2-3c-0.6-0.1-1.1-0.2-1.7-0.4c-0.2-0.1-0.4-0.4-0.6-0.6c0.3-0.2,0.5-0.5,0.8-0.5c1.1,0,2.1,0,3.2,0
		c7.3,0,14.7,0,22,0c1.3,0,1.9,0.2,1.7,1.6c-0.1,1.5-0.1,3-0.1,4.5c0,0.5-0.1,0.9-0.1,1.4c-0.2,0.1-0.3,0.1-0.5,0.2
		c-0.3-0.5-0.8-1-0.8-1.5c-0.3-2.6-2-3.7-4.4-3.8c-3.1-0.1-6.2-0.2-9.3-0.3c-1,0-1.8,0.5-1.9,1.6c-0.5,3.4-0.8,6.8-1.2,10.3
		c-0.1,0.9,0.5,1.3,1.3,1.3c1.9,0,3.8,0.1,5.6-0.1c2.2-0.1,3.8-1.2,4.8-3.2c0.2-0.4,0.8-0.7,1.2-1c0.1,0.5,0.4,1,0.3,1.4
		c-0.3,3.1-0.7,6.2-1.1,9.3c0,0.2-0.2,0.3-0.5,0.8c-0.4-0.8-0.8-1.4-0.9-2c-0.5-2-1.8-3.3-3.8-3.4c-1.8-0.1-3.6-0.1-5.3-0.1
		c-1.1,0-2.1,0.4-2.2,1.6c-0.4,3.4-0.7,6.9-0.9,10.3c-0.1,1.6,0.8,2.4,2.4,2.5c5.8,0.4,11.1-0.6,15.1-5.3
		C171.5-300.4,171.9-300.7,172.3-301.1z"/>
	<path class="st0" d="M146.6-214.3c-2.4,2.3-5.1,3.6-8.4,3.6c-2.5,0-4.1-1.4-4.4-3.8c-0.5-3.4,0.9-6,4.1-7.7
		c2.1-1.1,4.3-2.2,6.5-3.1c1.3-0.6,2-1.3,1.8-2.9c-0.2-0.8-0.1-1.7-0.2-2.6c-0.3-1.8-1.1-2.6-3-2.7c-0.8,0-1.7,0.1-2.6,0.3
		c-1.4,0.3-2,1.1-1.8,2.7c0.4,2.7-0.8,4.1-3.1,4.2c-1.6,0-2.6-0.9-2.2-2.4c0.4-1.4,1.1-2.9,2.1-3.8c3.4-3.1,7.6-4.3,12.2-3.6
		c2.8,0.4,4.3,2.1,4.4,5c0.1,4.1,0.1,8.3,0.2,12.4c0,0.8-0.1,1.7,0.1,2.4c0.1,0.6,0.5,1.6,1,1.7c0.6,0.2,1.4-0.3,2.1-0.5
		c0.2-0.1,0.4-0.3,0.5-0.4c1.3,0.4,1.3,1.1,0.7,2.1C154.7-210.3,148.8-209.2,146.6-214.3z M146.2-224.4c-1.7,1-3,1.7-4.3,2.7
		c-1.6,1.2-2.2,2.9-2,4.9c0.2,1.7,1.2,2.8,2.5,2.8c1.6,0,3.7-1.6,3.8-3C146.2-219.3,146.2-221.6,146.2-224.4z"/>
	<path class="st0" d="M80.4-378.8c4.4,0,8.8,0,13.3,0c1.1,0,1.6,0.2,1.5,1.4c-0.1,1.8,0,3.6-0.1,5.3c0,0.3-0.3,0.6-0.4,1
		c-0.3-0.2-0.8-0.4-1-0.7c-0.4-0.8-0.6-1.7-0.9-2.6c-0.5-1.4-1.3-2.3-2.9-2.2c-1.3,0.1-2.7,0-4,0c-2.1,0.1-2.8,0.6-3,2.7
		c-0.8,7.3-1.6,14.6-2.4,21.9c-0.1,0.7,0,1.4,0.1,2.2c0.2,1.6,1,2.5,2.6,2.7c0.3,0,0.6,0,0.8,0.2c0.4,0.2,0.8,0.5,1.2,0.8
		c-0.4,0.3-0.9,0.7-1.3,0.7c-1.5,0-3-0.2-4.5-0.2c-2.4,0-4.7,0.1-7.1,0.2c-0.5,0-1.1,0-1.6-0.2c-0.2-0.1-0.5-0.5-0.5-0.7
		c0-0.1,0.4-0.5,0.6-0.5c3.1-0.4,3.3-2.6,3.6-5c0.4-3.7,0.9-7.3,1.4-11c0.5-3.9,1-7.7,1.6-11.5c0.2-1.2-0.3-2.1-1.5-2.1
		c-2.2,0.1-4.5,0.3-6.7,0.6c-1.6,0.2-2.4,1.4-3,2.8c-0.3,0.9-0.6,1.8-1,2.7c-0.2,0.4-0.7,0.6-1.1,0.9c-0.2-0.4-0.6-0.9-0.5-1.3
		c0.5-2.4,1-4.8,1.7-7.1c0.1-0.5,1.2-0.9,1.8-0.9c4.2,0,8.3,0.1,12.5,0.2c0.3,0,0.6,0,0.9,0C80.4-378.6,80.4-378.7,80.4-378.8z"/>
	<path class="st0" d="M122.7-366.4c-0.6-1.2-1.3-2.3-1.8-3.5c-1.2-2.7-2.6-5.2-5.4-6.5c-4.9-2.3-10.4-0.7-12.9,4.1
		c-3.2,6.4-3.4,13.1,0.3,19.4c3.7,6.3,11.1,6,15.5,1.5c0.7-0.8,1.4-1.6,2.2-2.3c0.3-0.3,0.8-0.4,1.2-0.5c0,0.5,0.2,1.1,0,1.4
		c-1.4,1.6-2.7,3.4-4.4,4.7c-5.6,4.3-13.1,4.1-18.4-0.6c-3.1-2.7-4.5-6.3-4.8-10.3c-0.5-6.9,1.8-12.8,7.2-17c5-3.9,10.8-4,16.6-1.5
		c0.6,0.2,1.1,0.6,1.6,0.9c0.8,0.5,1.6,0.8,2.5,0.1c0.6-0.5,1.4-0.4,1.4,0.6c0.1,3,0,6,0,9.1c0,0.1-0.1,0.2-0.2,0.4
		C123-366.6,122.9-366.5,122.7-366.4z"/>
	<path class="st0" d="M57.1-301.8c0.1,0.1,0.2,0.1,0.2,0.2c1.1,3.4-2.2,8.6-5.7,8.7c-3.1,0.1-6.1,0-9.2,0c-3.7,0-7.4,0.1-11.1,0.1
		c-0.4,0-0.9,0.1-1.3,0c-0.3-0.1-0.7-0.5-0.8-0.8c-0.1-0.2,0.3-0.8,0.6-0.8c2.7-0.6,3.3-2.6,3.5-4.9c0.7-5.8,1.5-11.5,2.2-17.2
		c0.2-1.5,0.3-2.9,0.3-4.4c0.1-2-0.6-2.7-2.5-3.3c-0.6-0.2-1.3-0.5-1.9-0.7c0-0.2,0-0.4,0-0.5c0.6-0.2,1.1-0.5,1.7-0.5
		c3.7,0,7.4,0,11.1,0c0.4,0,0.8,0.3,1.2,0.5c-0.3,0.4-0.5,0.9-0.9,1.1c-2.1,0.8-2.8,2.4-3,4.5c-0.6,6.9-1.4,13.7-2.1,20.6
		c-0.3,2.9,0.8,4.2,3.8,4.2c5,0.1,9.3-1.4,12.3-5.6c0.4-0.5,0.6-1.1,0.9-1.7C56.7-302.2,56.9-302,57.1-301.8z"/>
	<path class="st0" d="M221.7-346.2c0.6-0.4,1.1-0.8,1.7-1c1.4-0.6,1.9-1.6,2.1-3c0.7-5.9,1.4-11.8,2.1-17.7c0.2-1.8,0.4-3.6,0.6-5.4
		c0.2-1.9-0.6-3.1-2.5-3.7c-0.4-0.1-0.8-0.2-1.1-0.3c-0.2-0.1-0.5-0.4-0.4-0.6c0-0.2,0.3-0.5,0.5-0.6c0.5-0.1,1-0.2,1.6-0.2
		c3.3,0,6.5,0,9.8,0.1c0.6,0,1.2,0.3,1.8,0.5c-0.5,0.4-0.9,1-1.4,1.2c-1.3,0.5-2.2,1.3-2.3,2.7c-0.9,7.7-1.8,15.4-2.6,23.2
		c-0.3,2.9,0.2,3.3,3,4.2c0.6,0.2,1.1,0.6,1.8,1C234.8-345.1,222.7-345.3,221.7-346.2z"/>
	<path class="st0" d="M19.9-325.8c2.2-0.1,4.5-0.2,6.8-0.3c0.4,0,0.9,0.3,1.3,0.5c-0.3,0.4-0.6,1-1.1,1.1c-1.6,0.5-2.6,1.4-2.8,3.2
		c-0.8,7.6-1.6,15.2-2.4,22.7c-0.3,2.5,0.4,3.4,2.8,4.1c0.2,0.1,0.4,0,0.6,0.1c0.4,0.3,0.8,0.7,1.1,1.1c-0.5,0.2-0.9,0.5-1.4,0.5
		c-3.7,0.1-7.4,0.1-11.1,0.1c-0.3,0-0.7,0-1-0.1c-0.3-0.1-0.7-0.4-0.7-0.6c0-0.3,0.3-0.8,0.6-0.9c2.3-0.6,2.7-2.4,3-4.5
		c0.8-7.1,1.9-14.2,2.7-21.4c0.2-1.9-0.3-4.1-2.7-4.3c-0.2,0-0.5-0.1-0.7-0.3c-0.3-0.2-0.5-0.5-0.7-0.8c0.3-0.2,0.7-0.6,1-0.6
		c1.5,0,3.1,0.1,4.6,0.2C19.9-325.9,19.9-325.8,19.9-325.8z"/>
	<path class="st0" d="M39.7-397.7c-2,0-4,0-6.1,0c0-0.2,0-0.3,0-0.3c1.8-0.4,1.9-1.7,2.1-3.2c0.3-3.7,0.8-7.3,1.2-11
		c0.2-2,0.8-4.1-2.5-4.3c0.1-0.1,0.2-0.2,0.3-0.3c2.1,0,4.2,0,6.3,0c-2.9,1.1-2.1,3.8-2.3,5.8c-0.4,3.4-0.9,2.9,2.5,2.9
		c2.3,0.1,4.5,0,6.8,0c1,0,1.4-0.3,1.4-1.3c0.1-1.4,0.2-2.8,0.4-4.1c0.2-1.5-0.1-2.4-1.7-2.7c-0.2,0-0.4-0.2-0.6-0.6
		c2.1,0,4.1,0,6.2,0c0,0,0,0.1,0,0.2c-2,0.8-2.1,2.6-2.3,4.4c-0.4,3.9-0.7,7.8-1.3,11.7c-0.2,1.5,0.3,2.2,1.7,2.3
		c0.3,0,0.5,0.2,0.7,0.6c-2.1,0-4.2,0-6.3,0c2.6-0.7,1.9-2.9,2.2-4.6c0.2-1.2,0.3-2.5,0.4-3.7c0.1-0.8-0.1-1.3-1.1-1.2
		c-2.8,0-5.6,0-8.3,0c-1.1,0-1.6,0.4-1.7,1.6c-0.1,1.7-0.2,3.4-0.5,5c-0.2,1.4,0.1,2.3,1.6,2.4c0.2,0,0.5,0.2,0.7,0.4
		C39.8-397.9,39.8-397.8,39.7-397.7z"/>
	<path class="st0" d="M57-417.1c1.8,0,3.5,0,5.3,0c2.4,0,4.7-0.1,7.1-0.1c0.9,0,1.2,0.3,1.2,1.2c-0.1,0.9,0,1.9,0,2.8
		c-0.1,0-0.3,0.1-0.4,0.1c-0.1-0.3-0.4-0.6-0.4-1c0-1.2-0.7-1.7-1.7-1.8c-2-0.2-4.1-0.2-6.2-0.2c-0.3,0-0.9,0.6-1,1
		c-0.3,1.8-0.5,3.7-0.8,5.6c-0.1,0.8,0.2,1.3,1.1,1.2c0.8,0,1.5,0,2.3,0c1.6-0.1,3.3,0.3,3.6-2.3c0.2,0.1,0.3,0.3,0.5,0.4
		c-0.2,1.8-0.4,3.7-0.6,5.6c-0.3-0.1-0.4-0.2-0.4-0.2c-0.4-2.3-0.4-2.4-3.2-2.4c-0.2,0-0.5,0-0.7,0c-2.8-0.1-2.8-0.4-3.2,2.9
		c-0.2,1.5-0.4,3-0.4,4.4c0,0.4,0.6,1.2,0.9,1.2c2.3-0.1,4.7-0.3,7-0.8c0.7-0.1,1.3-1,2-1.5c0.2-0.2,0.5-0.4,0.8-0.6
		c0,1.7-1.3,3.7-2.7,3.8c-3.9,0.1-7.8,0-11.9-0.1c2.1-0.5,1.9-2.1,2.1-3.6c0.5-4.2,1.1-8.5,1.7-12.7c0.2-1.6-0.7-2.2-2.1-2.5
		C56.8-416.8,56.9-416.9,57-417.1z"/>
	<path class="st0" d="M208.8-397.7c-1.6,0-3.4,0-5.3,0c0.1-0.2,0.2-0.4,0.3-0.5c1.6-0.3,1.9-1.1,1.3-2.6c-0.4-0.9-0.7-1.9-0.9-2.9
		c-0.2-1.2-0.9-1.5-2-1.4c-1.9,0.1-3.7,0-5.6,0c-0.9,0-1.5,0.3-1.9,1.2c-0.5,1.1-1.1,2.1-1.6,3.2c-0.7,1.6-0.6,1.8,1,2.3
		c0.2,0,0.3,0.1,0.5,0.5c-1.6,0-3.3,0-4.9,0c3.4-3.4,4.8-8,7.2-12c1.3-2.3,2.5-4.6,3.8-6.9c0.1-0.2,0.2-0.4,0.6-1
		c0.4,1,0.8,1.6,1,2.3c1.6,4.9,3.1,9.8,4.8,14.6C207.4-399.7,208.2-398.8,208.8-397.7z M203.4-406.2c-1-2.7-1.8-5.2-2.7-7.7
		c-0.2,0-0.3,0-0.5,0c-1.4,2.5-2.8,4.9-4.3,7.7C198.4-406.2,200.7-406.2,203.4-406.2z"/>
	<path class="st0" d="M218.7-397.7c-2.1,0-4.2,0-6.2,0c2.8-0.8,2.1-3.2,2.4-5.1c0.6-3.8,1-7.6,1.6-11.4c0.2-1.3-0.1-1.8-1.4-1.7
		c-0.7,0.1-1.4,0.1-2.2,0c-1.9-0.1-3.4,0.4-4.1,2.4c0,0.1-0.2,0.1-0.4,0.2c-0.3-2.4,1-3.8,3.2-3.8c4.2,0,8.4,0,12.5,0
		c1.7,0,1.8,0.1,1.7,1.8c0,0.7,0,1.5,0,2.2c-0.2,0-0.3,0-0.5,0.1c-0.1-0.3-0.3-0.6-0.3-0.9c-0.1-1.5-0.9-2-2.3-1.9c-1,0-2,0-3,0
		c-0.8,0-1.2,0.3-1.3,1.1c-0.5,4.6-1.1,9.2-1.7,13.7c-0.2,1.5-0.1,2.7,1.8,2.8c0.1,0,0.1,0.1,0.2,0.2
		C218.6-397.9,218.6-397.9,218.7-397.7z"/>
	<path class="st0" d="M26-397.7c-2.2,0-4.2,0-6.2,0c2.1-0.7,2.1-2.5,2.3-4.1c0.5-4.2,1-8.4,1.6-12.5c0.2-1.2-0.2-1.6-1.3-1.5
		c-0.9,0.1-1.7,0.1-2.6,0c-1.7-0.1-3,0.5-3.6,2.2c0,0.1-0.1,0.2-0.3,0.3c-0.1,0.1-0.2,0-0.3,0.1c-0.3-2.2,0.9-3.8,3-3.8
		c4.2,0,8.4,0,12.5-0.1c1.4,0,2,0.4,1.7,1.8c-0.1,0.7,0,1.4,0,2.1c-0.1,0-0.3,0.1-0.4,0.1c-0.1-0.4-0.2-0.8-0.3-1.1
		c-0.2-1-0.8-1.6-1.9-1.6c-5.6,0.1-4.4-0.9-5.1,4.3c-0.5,3.5-0.8,7.1-1.3,10.6c-0.2,1.6,0,2.7,1.8,2.9
		C25.7-398.1,25.8-397.9,26-397.7z"/>
</g>
<g>
	<path class="st1" d="M109.8,134.7c0.3-0.3,0.6-0.7,0.9-0.9c0.3-0.2,0.7-0.2,1.1-0.3c2.4-0.2,4.3-1.8,4.8-4.1
		c0.1-0.3-0.1-0.8-0.3-1.1c-2.9-3.4-5-7.1-6.2-11.4c-0.1-0.3-0.2-0.6-0.3-0.9c-0.5-1.4-1.1-1.6-2.4-1c-0.6,0.3-1.2,0.5-1.8,0.8
		c0-0.1-0.1-0.2-0.1-0.2c0.4-0.3,0.8-0.7,1.1-1c0.6-0.6,1.2-1.2,1.7-1.9c0.5-0.8,1.1-1.4,2-1.7c1.5-0.6,2.5-0.3,3.5,1
		c0.9,1.3,2.1,2.2,3.5,3c3.1,1.7,4.8,4.5,5.8,7.8c0.8,2.7,2.1,5.1,3.6,7.5c0.5,0.8,1.1,1.7,1.6,2.6c0.2,0.4,0.4,1,0.3,1.5
		c-0.1,0.7-0.5,1.3-1.3,1.5c-0.7,0.2-1.1-0.4-1.4-0.9c-0.4-0.7-0.8-1.5-1.2-2.3c-0.7-1.3-1.8-1.8-3.1-1.9c-0.5,1.7-1,3.3-0.2,5
		c0.2,0.3,0.3,0.7,0.5,1c0.7,0.9,1.2,1.9,1,3.1c-0.3,1.5-1.2,2.5-2.5,2.6c-1.2,0.1-2.5-0.9-3-2.2c-0.2-0.5-0.3-1.1-0.5-1.6
		c-0.9-2-2.6-2.3-4.1-0.7c-2.1,2.4-2.6,5.2-1.7,8.2c1.5,4.9,5.1,7.7,10,8.3c6.4,0.9,11.9-1.1,15.9-6.5c2.5-3.4,2.9-7.4,2.4-11.5
		c-0.5-4.2-2.1-8.1-3.9-11.9c-1.7-3.6-3.3-7.2-4.3-11c-1.1-4.1-0.8-7.9,1.8-11.4c3-4,8.7-5.8,13.4-4.2c2.5,0.9,4,2.6,4.3,5.2
		c0.2,1.7-0.9,3.2-2.6,3.6c-1.6,0.3-3-1-2.8-2.6c0.1-0.6,0.3-1.2,0.6-1.8c0.5-1.2,0.2-2-1-2.6c-2.5-1.2-6.1-0.2-7.9,2.2
		c-1.6,2.2-1.8,4.6-1.5,7.2c0.4,2.6,1.4,5,2.4,7.4c1.7,3.7,3.5,7.3,5.1,11.1c2,4.9,2.5,10,0.7,15.1c-2.4,7.1-7.4,11.4-14.6,13.3
		c-4.8,1.3-9.7,1.3-14.4-0.8c-3.8-1.7-6.5-4.5-7.1-8.7c-0.6-4,0.5-7.5,3.7-10.2c0.6-0.5,0.8-0.9,0.4-1.6c-0.3-0.5-0.9-0.4-1.6,0.1
		c0,0-0.1,0-0.1,0C109.9,134.8,109.9,134.8,109.8,134.7z M114.2,134c0,0.1,0,0.2,0,0.3c0.3,0.1,0.6,0.3,0.9,0.3c1,0,1.9,0,2.9,0
		c1,0,1.9-0.4,2-1c0.1-0.7,0.1-1.4,0.2-2.2c0-0.6-0.1-1.1-0.9-1.2c-0.7-0.1-1.2-0.1-1.7,0.6c-0.5,0.8-1.1,1.4-1.8,2
		C115.4,133.3,114.8,133.6,114.2,134z"/>
	<path class="st1" d="M54.8,28.4c-1.3,0-2.5,0-3.7,0c-2,0-3.9,0-5.9-0.1c-1.9,0-3.8,0.2-5.5,1.1c-2.8,1.6-3.4,4.8-1.4,7.3
		c1,1.2,1,2,0.1,2.8c-0.8,0.7-2.2,0.5-3.1-0.4c-1.1-1.1-1.2-2.5-1-3.9c0.7-4.6,4-7.6,8.4-8.8c2.2-0.6,4.4-0.6,6.6-0.6
		c1.7,0,3.5,0.1,5.2,0.1c1.7,0,3.4,0,5,0c-0.5,4.9-1,9.8-1.4,14.7c-0.4,4.9-0.6,9.8-0.8,14.8c0.2-0.2,0.4-0.3,0.5-0.5
		c4.3-5.3,8.7-10.5,13-15.8c2.9-3.5,5.7-6.9,8.6-10.4c0.6-0.7,1.1-1.5,1.6-2.3c0.3-0.4,0.6-0.6,1.2-0.6c2.5,0,5,0,7.5-0.1
		c0.4,0,1-0.2,1,0.5c0,0.6-0.4,0.7-0.9,0.8c-0.9,0.2-1.9,0.4-2.8,0.6c-1.2,0.3-2.1,1-2.6,2.1c-1.1,2.8-2.2,5.7-3.3,8.5
		c-1.9,5.4-3.7,10.7-5.6,16.1c-0.5,1.4-0.9,2.9-1.1,4.4c-0.2,1.4,0.3,2,1.7,2.2c0.5,0.1,1.1,0.1,1.6,0.2c0.4,0,0.8,0,0.8,0.6
		c-0.1,0.5-0.3,0.7-0.9,0.7c-2.5-0.1-5.1-0.1-7.6-0.1c-1.5,0-3.1,0.1-4.6,0.1c-0.4,0-0.8,0-0.8-0.5c0-0.5,0.3-0.7,0.7-0.7
		c0.4,0,0.7-0.1,1.1-0.1c2,0,3.2-1.1,3.8-2.8c0.9-2.5,1.8-5.1,2.7-7.6c1.3-3.6,2.7-7.2,4.1-10.9c0.9-2.5,1.9-5.1,2.8-7.6
		c0.1-0.2,0.1-0.4,0-0.6c-0.2,0.2-0.5,0.5-0.7,0.7c-3.6,4.2-7.3,8.4-10.8,12.8c-4.7,5.9-9.3,11.8-14,17.8c-0.3,0.4-0.6,0.6-1.1,0.4
		c-0.5-0.2-0.6-0.6-0.5-1.1c0.3-2.8,0.6-5.6,0.8-8.4c0.5-5.7,1.1-11.5,1.6-17.2c0.1-1.6,0.2-3.3,0.2-4.9c-0.3,0.6-0.6,1.2-0.9,1.8
		c-3.6,7.8-8.2,15-13.7,21.6c-3.6,4.3-7.9,7.7-13.3,9.4c-5.3,1.7-10.6,1.7-15.6-1C7.7,61.2,5,57.7,3.7,53.1c-0.9-3.1-1-6.3,0-9.4
		c0.8-2.6,2.1-5,4.5-6.5c1-0.6,2-1,3.2-0.8c0.9,0.2,1.6,0.8,1.6,1.7c0.1,0.9-0.4,1.8-1.3,2c-4.2,1.1-6.5,5.4-6.5,9.3
		c0.1,6,2.8,10.4,8.4,12.8c1.4,0.6,3,0.8,4.6,0.9c4.1,0.2,8-0.6,11.6-2.8c2.8-1.8,5.4-3.9,7.6-6.4c1.5-1.6,3-3.1,4.3-4.8
		c1.6-1.9,3.2-3.9,4.7-6c1.9-2.7,3.7-5.5,5.4-8.4c1.1-1.9,2-3.9,2.9-5.8C54.8,28.8,54.8,28.7,54.8,28.4z"/>
	<path class="st1" d="M133.2,190.4c-0.6,0.4-1.1,0.9-1.7,1.3c-2.3,1.4-4.7,2.1-7.3,2.5c-3.9,0.5-7.8,0.5-11.5-1c-4-1.6-7.4-4-9.4-8
		c-1.7-3.5-1.5-7.1-0.1-10.6c2.3-5.5,6.6-8.7,12.2-10.2c5.9-1.6,11.6-0.8,17.3,1.1c0.7,0.2,1,0.1,1.4-0.4c3.6-4.4,8.4-7,13.9-8
		c3.2-0.6,6.5-0.7,9.8-0.3c0.5,0.1,1,0,1.5,0c1.5,0,2.9,0.3,4.2,1c1.6,0.8,3.4,1.4,5,2.2c4.9,2.4,9.2,5.7,12.9,9.7
		c1.3,1.4,2.4,2.9,3.6,4.3c0.2,0.2,0.3,0.5,0.4,0.7c-0.1,0.1-0.1,0.1-0.2,0.2c-0.6-0.6-1.2-1.1-1.7-1.7c-3.8-4.3-8.2-7.7-13.4-10.1
		c-5.7-2.6-11.7-3.5-17.9-3.1c-3.9,0.2-7.7,0.8-11.3,2.3c-2.2,1-4.3,2.3-6.1,4.2c4.7,2.4,8.8,5.5,12,9.7c0.7-1,1.4-1.9,2.1-2.8
		c4.4-5.1,12.4-6.9,18.4-3.9c5.4,2.8,7.7,9.5,5.2,15c-1.7,3.5-4.5,5.7-8,7.2c-6,2.5-12.1,2.6-18.4,1.2c-4.3-1-8.3-2.8-11.5-5.9
		c-4.1-3.9-5.4-8.7-4.2-14.2c0.4-1.6,0.9-3.1,1.5-4.8c-1.5-0.2-3-0.5-4.6-0.7c-4.6-0.5-9.1-0.6-13.6,0.8c-3.3,1-6.4,2.5-8.4,5.5
		c-2.6,3.7-2.9,7.6-1,11.7c1.6,3.6,4.7,5.7,8.2,7.1c3.5,1.4,7.1,1.8,10.8,1.2c2.3-0.4,4.5-1,6.7-1.7c0.8-0.2,1.4-0.7,2.1-1.1
		c0.3-0.2,0.6-0.3,0.9-0.5C133.1,190.2,133.1,190.3,133.2,190.4z M153.8,192.8c4.2,0,8.9-1,12.6-3.3c3.9-2.5,6.3-5.8,5.7-10.6
		c-0.4-3.1-2-5.3-4.5-7c-2.6-1.8-5.5-2.4-8.6-2.1c-4.6,0.5-8.4,2.2-11.1,6.1c-0.4,0.6-0.6,1,0,1.6c0.3,0.4,0.6,0.9,0.8,1.4
		c0.6,1.2,0.2,2.7-0.7,3.5c-0.6,0.5-1.1,0.4-1.4-0.1c-0.4-0.6-0.8-1.4-0.8-2.1c0-0.9,0.3-1.9,0.6-2.7c0.2-0.6,0.2-1-0.2-1.3
		c-0.7-0.6-1.3-1.3-2-1.9c-2.8-2.3-6-4-9.3-5.4c-1.4-0.6-1.5-0.6-2.2,0.8c-0.2,0.3-0.3,0.7-0.5,1c-1.2,3.2-1.8,6.4-0.7,9.8
		c1.3,4.2,4.3,7,8.1,9C143.9,191.8,148.8,192.8,153.8,192.8z"/>
	<path class="st1" d="M211.3,56.4c0.1-0.5,0.2-1,0.3-1.5c0.3-2.8,0.5-5.5,0.7-8.3c0.1-1.4-0.6-2.3-2-2.7c-0.4-0.1-0.8-0.2-1.2-0.4
		c-0.2-0.1-0.3-0.3-0.4-0.5c0.2-0.1,0.3-0.3,0.5-0.4c0.2-0.1,0.4,0,0.7,0c1.9,0,3.7,0,5.6,0c0.3,0,0.6,0.2,0.8,0.3
		c-0.2,0.2-0.4,0.6-0.6,0.7c-1.2,0.5-1.6,1.4-1.8,2.6c-0.6,4.9-1.2,9.9-1.8,14.8c-0.1,0.5-0.1,0.9-0.2,1.4c-0.1,0-0.2,0.1-0.3,0.1
		c-3.9-5.2-7.8-10.4-11.8-15.8c-0.2,0.6-0.3,0.8-0.3,1.1c-0.3,3.4-0.6,6.7-0.9,10.1c-0.1,1.9,0.5,2.6,2.3,3c0.3,0.1,0.7,0.1,1,0.3
		c0.1,0.1,0.3,0.3,0.2,0.5c0,0.1-0.3,0.3-0.4,0.3c-2.4,0-4.8-0.1-7.2-0.1c-1.7,0-3.4,0-5,0c-0.3,0-0.6,0.1-0.8,0
		c-0.3-0.1-0.7-0.3-1-0.4c0.3-0.2,0.5-0.4,0.8-0.5c0.9-0.4,1.2-0.7,1-1.7c-0.3-1.3-0.7-2.5-1.1-3.7c-0.1-0.2-0.5-0.5-0.8-0.5
		c-1.8-0.1-3.5-0.1-5.3-0.1c-0.4,0-1,0.4-1.3,0.8c-0.6,1-1,2.1-1.4,3.1c-0.3,0.8,0.1,1.4,0.9,1.6c0.3,0.1,0.7,0.2,1,0.3
		c0.3,0.1,0.5,0.4,0.8,0.6c-0.3,0.1-0.6,0.4-0.8,0.4c-2.5,0-5-0.1-7.5-0.1c-1.1,0-2.3,0.1-3.4,0.1c-0.5,0-1-0.1-1.6-0.2
		c0-0.1,0-0.2,0-0.3c0.2-0.2,0.5-0.4,0.7-0.5c1.2-0.3,1.5-1.2,1.6-2.3c0.1-1.8,0.3-3.5,0.5-5.3c0.1-0.6-0.1-0.9-0.7-0.9
		c-2.4,0-4.8,0-7.2,0c-0.3,0-0.7,0.4-0.8,0.7c-0.3,2-0.5,3.9-0.7,5.9c-0.1,0.9,0.5,1.4,1.5,1.7c0.4,0.1,0.8,0.4,1.1,0.7
		c-0.4,0.1-0.8,0.3-1.2,0.4c-2,0-3.9,0-5.9,0c-0.3,0-0.6,0-0.8-0.1c-0.4-0.1-0.5-0.6-0.1-0.7c2.1-0.6,2-2.3,2.2-3.9
		c0.4-3.1,0.8-6.3,1.1-9.4c0.1-0.8,0.2-1.6,0.3-2.4c0.1-1-0.3-1.6-1.3-2c-0.4-0.2-0.7-0.5-1-0.8c0.4-0.1,0.8-0.3,1.2-0.3
		c1.8,0,3.7,0,5.5,0c0.4,0,0.7,0.2,1.1,0.3c-0.3,0.2-0.5,0.6-0.8,0.7c-0.8,0.3-1.2,0.9-1.3,1.7c-0.2,1.7-0.4,3.4-0.7,5.1
		c-0.1,0.7,0.1,1,0.8,1c2.3,0,4.6,0,6.9,0c0.6,0,0.9-0.3,1-0.8c0.2-1.8,0.3-3.6,0.5-5.4c0.1-0.9-0.6-1.3-1.4-1.5
		c-0.3-0.1-0.6-0.4-0.9-0.6c0.4-0.1,0.7-0.3,1.1-0.3c1.9,0,3.9,0,5.8,0c0.3,0,0.6,0.2,0.9,0.3c-0.2,0.2-0.4,0.6-0.7,0.7
		c-0.8,0.3-1.3,0.9-1.4,1.8c-0.4,4.3-0.9,8.6-1.3,12.9c0,0.4,0,0.8,0,1.2c0,0.7,0.4,1.2,1.1,1.4c0.7,0.2,1.2-0.1,1.5-0.6
		c0.7-1.2,1.4-2.5,2.1-3.7c1.9-3.4,3.8-6.8,5.6-10.2c0.7-1.2,1.3-2.4,1.9-3.6c0.1-0.2,0.4-0.4,0.6-0.6c0.2,0.2,0.4,0.4,0.5,0.7
		c1.6,5.1,3.2,10.3,4.8,15.4c0.3,0.9,0.5,1.8,1.4,2.4c1,0.7,1.7,0.6,2.3-0.5c0.3-0.5,0.5-1,0.6-1.6c0.5-3.6,1-7.2,1.4-10.8
		c0.3-2.1-0.5-3.2-2.5-3.9c-0.3-0.1-0.6-0.2-0.9-0.3c-0.2-0.1-0.4-0.4-0.5-0.5c0.3-0.1,0.5-0.4,0.8-0.4c0.6,0,1.3,0.1,1.9,0.1
		c0.8,0,1.5,0,2.3-0.1c0.7-0.1,1.2,0.1,1.6,0.7c3.1,4.2,6.3,8.4,9.4,12.5c0.2,0.2,0.2,0.5,0.4,0.8C211,56.6,211.2,56.5,211.3,56.4z
		 M185.8,47.3c-0.3,0.3-0.5,0.5-0.6,0.7c-0.9,1.6-1.7,3.3-2.6,4.9c-0.3,0.5-0.1,0.8,0.4,0.8c1.4,0.1,2.8,0.1,4.2,0
		c0.5,0,0.8-0.4,0.5-0.9c-0.3-0.9-0.6-1.8-0.9-2.7C186.6,49.3,186.2,48.4,185.8,47.3z"/>
	<path class="st1" d="M70.1,71.8C67,71.9,64,72,61,72c-2.4,0-4.8,0-7.2,0.6c-1.2,0.4-2.5,0.8-3.5,1.5c-2.1,1.3-2.4,3.8-0.8,5.4
		c0.2,0.2,0.4,0.3,0.6,0.5c1.2,0.7,1.5,1.5,1,2.7c-0.4,1-1.7,1.6-2.8,1.2C47,83.5,46,82.3,45.9,81c-0.3-3.7,1.3-6.5,4.2-8.6
		c2.9-2.1,6.3-3,9.8-3.2c3.8-0.2,7.7-0.2,11.5-0.3c0.7,0,1.3-0.3,2-0.4c0.3,0,0.7,0,1.2,0.1c-0.8,1.1-1.5,1.9-2.1,2.7
		c-3.6,4.7-6.5,9.8-8.5,15.4c-1,3-1.5,6.1-1.1,9.3c0.6,5.1,4.1,7.6,9.1,6.5c2.9-0.6,5.2-2.2,7.3-4.1c2.2-2,4.1-4.2,5.5-6.8
		c1.3-2.4,2.3-4.8,2.8-7.4c0.4-1.8,0.7-3.6,0.8-5.4c0.1-2.8-0.2-5.5-1.2-8.1c-0.5-1.2,0.1-2.3,1.2-2.7c1-0.4,2.3,0.2,2.8,1.4
		c0.8,1.8,0.8,3.6,0.8,5.5c0,3.9-1,7.6-2.4,11.2c-2.1,5.3-4.9,10-9.1,13.9c-3.2,3-6.7,5.3-11.1,5.9c-2.4,0.3-4.8,0.2-6.8-1.3
		c-2-1.3-3.1-3.2-3.7-5.5c-0.6-2.6-0.2-5.1,0.5-7.5c1.1-4.4,3.3-8.4,5.7-12.2c1.5-2.4,3.2-4.6,4.8-6.9C69.9,72.2,70,72,70.1,71.8z"
		/>
	<path class="st1" d="M148.3,92.7c-1,0-2,0-2.9,0c-0.3,0-0.6-0.3-0.8-0.4c0.2-0.2,0.4-0.5,0.7-0.6c1.2-0.4,1.1-0.7,1-1.8
		c-0.1-1-0.5-2-0.8-3c-0.2-0.7-0.7-1.1-1.5-1.1c-1.6,0-3.2-0.1-4.8,0c-0.5,0-1.1,0.3-1.3,0.7c-0.6,0.9-1.1,2-1.4,3
		c-0.4,1,0.1,1.6,1.1,2c0.3,0.1,0.6,0.1,0.9,0.3c0.2,0.1,0.4,0.4,0.6,0.6c-0.2,0.1-0.5,0.4-0.7,0.4c-1.3,0-2.5-0.1-3.8-0.1
		c-4.1,0-8.2,0-12.3,0c-0.5,0-1.1,0.1-1.6,0c-0.2,0-0.4-0.3-0.5-0.5c0-0.1,0.2-0.4,0.3-0.5c1.7-0.3,1.9-1.7,2.1-3.1
		c0.4-3.4,0.8-6.8,1.2-10.2c0.1-0.7,0.2-1.4,0.2-2.2c0-1.2-0.3-1.6-1.5-1.9c-0.2,0-0.4,0-0.5-0.1c-0.2-0.1-0.4-0.3-0.6-0.5
		c0.2-0.1,0.4-0.4,0.7-0.4c0.8,0,1.6,0,2.4,0c1.4,0,2.8-0.1,4.2,0c0.3,0,0.5,0.2,0.8,0.3c-0.2,0.2-0.3,0.5-0.6,0.6
		c-1.1,0.4-1.5,1.2-1.6,2.3c-0.4,4-0.8,8.1-1.2,12.1c-0.2,2,0.4,2.6,2.4,2.7c2.7,0,5.2-0.8,6.8-3.1c0.8-1.2,1.5-2.5,2.2-3.8
		c1.8-3.4,3.7-6.7,5.5-10.1c0.2-0.3,0.3-0.7,0.5-1c0.1-0.2,0.4-0.4,0.5-0.6c0.2,0.2,0.4,0.4,0.5,0.6c0.5,1.6,1,3.2,1.5,4.8
		c1.2,3.7,2.3,7.4,3.5,11.1c0.4,1.3,1.1,2.3,2.6,2.4c0.2,0,0.4,0.4,0.7,0.6c-0.2,0.1-0.5,0.4-0.7,0.4
		C150.9,92.8,149.6,92.8,148.3,92.7C148.3,92.8,148.3,92.7,148.3,92.7z M142.7,78.1c-0.2,0.2-0.4,0.2-0.4,0.3
		c-1,1.8-1.9,3.5-2.8,5.3c-0.2,0.5,0,0.7,0.5,0.7c1.4,0,2.7,0,4.1,0c0.5,0,0.7-0.3,0.6-0.8c-0.2-0.8-0.4-1.5-0.7-2.2
		C143.5,80.3,143.1,79.2,142.7,78.1z"/>
	<path class="st1" d="M207.7,81.3c-0.4-2.2-0.5-4.3,0.7-6.3c1-1.6,2.4-2.6,4.3-2.8c1.3-0.1,2.4,1.2,2.1,2.5
		c-0.5,2.6-2.2,4.2-4.1,5.7c-0.1,0.1-0.3,0.2-0.5,0.3c-0.1,0.1-0.3,0.2-0.5,0.4c0.8,1.4,1.7,2.7,2.7,4.3c2.1-2.2,4.1-4.5,6.3-6.5
		c2.5-2.4,5-4.9,8.2-6.4c1.4-0.7,2.9-1.1,4.5-0.8c2.2,0.4,2.5,2.8,1.2,4.3c-0.4,0.4-0.9,0.8-1.5,1c-0.8,0.2-1.4-0.3-1.4-1.1
		c0-0.4,0-0.8,0-1.3c0-1-0.7-1.6-1.6-1.2c-1.4,0.6-2.7,1.3-3.9,2.2c-3.5,2.5-6.4,5.7-9.4,8.7c-0.6,0.6-1.2,1.1-1.9,1.7
		c1.2,1.7,2.2,3.5,2.6,5.5c0.7,3.4,0.1,6.5-2.2,9.2c-2.7,3.1-6.1,4.6-10.2,4.3c-1.5-0.1-2.9-0.7-3.6-2.3c-0.1-0.3-0.1-0.6-0.1-1
		c0.1,0,0.1,0,0.2-0.1c0.1,0.1,0.2,0.1,0.3,0.2c0.7,1.5,2,2,3.5,2.1c3.7,0.2,6.2-1.6,7.9-4.7c1.1-2.1,1.3-4.4,0.9-6.7
		c-0.3-1.6-0.8-3.2-1.2-4.8c-1.6,1.1-3,2.2-4.5,3c-2.1,1.2-4.2,2.2-6.7,2.2c-1.9,0-3-1.5-2.5-3.4c0.6-2,2.1-3.4,3.8-4.5
		C203,84,205,83,207,81.8C207.2,81.7,207.5,81.5,207.7,81.3z M207.9,82.2c-1.4,1-2.9,2-4.3,3.2c-1.1,0.9-2.1,1.9-2.6,3.3
		c-0.3,0.7-0.5,1.4,0.1,2c0.6,0.6,1.3,0.5,2.1,0.3c2.5-0.7,4.6-2.2,6.7-3.7c0.1-0.1,0.2-0.5,0.1-0.8
		C209.3,85.1,208.7,83.7,207.9,82.2z M209.6,80.2c0.3-0.2,0.5-0.3,0.7-0.5c1.5-1.2,2.9-2.5,3.5-4.4c0.2-0.6,0.1-1.1-0.3-1.5
		c-0.5-0.4-1-0.3-1.5-0.1C209.9,74.8,208.8,77.5,209.6,80.2z"/>
	<path class="st1" d="M146.2,149.4c0-0.5,0-0.8,0-1.2c0.3,0,0.6,0,0.9,0c1,0,1.2-0.2,1.2-1.2c0-5.5,0-10.9,0-16.4
		c0-0.7-0.3-1.2-0.9-1.5c-0.3-0.2-0.7-0.3-0.9-0.5c-0.4-0.3-0.5-0.7,0-1c1.4-0.6,2.8-1.2,4.2-1.8c0.6-0.2,0.8,0,0.9,0.5
		c0,0.4,0.1,0.8,0.2,1.4c0.3-0.2,0.4-0.4,0.6-0.5c1.8-1.4,3.8-2,6-1.2c2.1,0.8,3.4,2.5,3.7,4.8c0.3,2.5-0.1,4.9-1.7,6.9
		c-1.8,2.4-4.7,3.3-7.6,2.5c-0.3-0.1-0.6-0.2-1-0.3c0,0.9,0,1.7,0,2.5c0,1.4,0,2.7,0.1,4.1c0,1.4,0.2,1.5,1.5,1.5
		c0.2,0,0.5,0,0.8,0.1c0,0.4,0,0.7,0,1.1c-0.1,0-0.3,0.1-0.4,0.1C151.4,149.4,148.8,149.4,146.2,149.4z M159,134.2
		c-0.1,0-0.2,0-0.2-0.1c0-2.1-0.5-4-1.4-5.2c-1.3-1.7-3.7-1.8-5.1-0.2c-0.2,0.2-0.3,0.6-0.3,0.9c0,2.3,0,4.5,0,6.8
		c0,0.5,0.1,1.2,0.4,1.6c1.2,1.7,4.5,1.6,5.5-0.2C158.4,136.7,158.6,135.4,159,134.2z"/>
	<path class="st1" d="M164.4,92.1c-1.2,0.3-2.2,0.6-3.3,0.8c-2.6,0.3-5-0.3-6.9-2.2c-0.7-0.7-1.3-1.7-1.6-2.7c-1.2-3.4-1-6.8,0.8-10
		c2.4-4.3,7.4-6,12.1-4.3c0.5,0.2,1,0.4,1.6,0.6c0.6,0.2,1.1,0.6,1.7-0.1c0.3-0.4,0.7-0.2,0.7,0.3c0,1.8,0,3.5,0,5.3
		c0,0.2-0.2,0.4-0.3,0.6c-0.2-0.1-0.5-0.2-0.6-0.4c-0.5-0.9-0.8-1.8-1.3-2.7c-1.7-2.8-5-3.9-7.7-2.6c-1.3,0.6-2.2,1.8-2.7,3.1
		c-1.3,3.4-1.6,6.8-0.5,10.3c0.8,2.6,3,3.9,5.7,3.5c1.3-0.2,2.4-0.9,2.7-2.3c0.3-1,0.4-2,0.5-3c0-1.3-0.4-1.8-1.7-2.1
		c-0.4-0.1-0.8-0.4-1.1-0.6c0.4-0.1,0.8-0.3,1.3-0.3c2,0,4,0,6,0c0.3,0,0.7,0.3,1,0.4c-0.3,0.2-0.5,0.6-0.8,0.7
		c-0.8,0.2-1.2,0.7-1.3,1.5c-0.3,2.3-0.6,4.6-1,6.9c-0.3,1.2-0.8,2.4-1.4,3.5c-1,1.6-3.2,2.2-5,1.5c-1-0.4-1.5-1.2-1.1-2.1
		c0.1-0.3,0.6-0.6,1-0.8c0.2,0,0.5,0.4,0.7,0.7c0.1,0.2,0.1,0.5,0.2,0.6c0.2,0.3,0.5,0.6,0.8,0.6c0.3,0,0.9-0.1,1-0.4
		C164.3,95,164.3,93.5,164.4,92.1z"/>
	<path class="st1" d="M140.8,31.6c-1.5,0-3,0-4.5,0c-0.4,0-0.7-0.3-1-0.5c0.3-0.3,0.5-0.7,0.8-0.8c1-0.4,1.7-1,1.9-2.2
		c0.4-3.5,0.9-7,1.3-10.5c0.3-2.3,0.6-4.6,0.9-6.9c0.1-0.7,0.1-1.4,0-2c-0.2-1-0.9-1.5-1.9-1.8c-0.5-0.1-1.3-0.2-1.1-0.9
		c0.1-0.2,0.9-0.4,1.4-0.4c2.6,0,5.3,0,7.9,0c0.5,0,1.2-0.3,1.4,0.4c0.2,0.7-0.6,0.8-1,0.9c-1.3,0.4-1.8,1.3-2,2.7
		c-0.5,4.8-1.1,9.6-1.7,14.4c-0.1,1.2-0.2,2.5-0.3,3.8c-0.1,1.2,0.5,1.9,1.7,2.3c0.4,0.1,0.9,0.2,1.3,0.4c0.3,0.1,0.4,0.4,0.7,0.7
		c-0.3,0.1-0.5,0.4-0.8,0.4C144,31.7,142.4,31.6,140.8,31.6C140.8,31.6,140.8,31.6,140.8,31.6z"/>
	<path class="st1" d="M101,50.6c0,4.6-1.1,7.5-3.7,9.6c-3.7,3-10.3,2.9-13.7-0.3C81.7,58.2,81,56,81,53.6c0-2.9,0.9-5.5,2.9-7.7
		c3.6-4,10.3-4.7,14.4-0.9C100.2,46.8,101,49.2,101,50.6z M84.6,53.4c0.3,1.4,0.5,2.9,1,4.3c1,2.9,4.1,4.3,7,3.2
		c2.8-1,3.9-3.3,4.4-6c0.3-1.5,0.3-3.2,0.2-4.7c-0.1-2-0.7-3.9-2.2-5.4c-2.5-2.3-6.1-1.9-8.2,1C85.3,48.1,84.8,50.7,84.6,53.4z"/>
	<path class="st1" d="M163.9,32.2c-3.9-5.2-7.7-10.4-11.7-15.8c-0.1,0.5-0.2,0.7-0.3,0.9c-0.3,3.4-0.6,6.9-0.9,10.3
		c-0.2,2,0.4,2.7,2.3,3.1c0.2,0.1,0.5,0.1,0.7,0.2c0.2,0.1,0.3,0.3,0.5,0.5c-0.2,0.1-0.4,0.3-0.6,0.3c-0.5,0-0.9-0.1-1.4-0.1
		c-1.6,0-3.2,0-4.9,0.1c-0.3,0-0.5,0-1.1,0c0.3-0.4,0.4-0.7,0.6-0.7c1.6-0.6,2.1-1.9,2.3-3.4c0.4-3.3,0.9-6.6,1.3-9.9
		c0.3-2.5-0.4-3.5-2.8-4.3c-0.4-0.1-1.2-0.1-1-0.8c0-0.2,0.8-0.3,1.2-0.3c1.2,0,2.4,0,3.6,0c0.7,0,1.3,0.1,1.7,0.8
		c3.2,4.3,6.4,8.5,9.6,12.8c0.1,0.1,0.2,0.2,0.4,0.4c0.2-0.3,0.4-0.5,0.4-0.7c0.3-2.9,0.7-5.9,0.9-8.8c0.1-2-0.6-2.7-2.6-3.3
		c-0.4-0.1-1.1-0.5-1-0.7c0.1-0.7,0.8-0.4,1.3-0.4c1.8,0,3.5,0,5.3,0c0.3,0,0.7,0.2,1,0.3c-0.2,0.3-0.4,0.7-0.7,0.8
		c-1.1,0.4-1.5,1.3-1.6,2.3c-0.5,4.3-1.1,8.7-1.6,13c-0.1,1.2-0.3,2.3-0.4,3.5C164.1,32.1,164,32.1,163.9,32.2z"/>
	<path class="st1" d="M186.2,25.9c0.1-0.8,0.3-1.6,0.4-2.3c0.2-2.2,0.4-4.4,0.6-6.6c0.2-2.1-0.6-3.3-2.8-3.8
		c-0.3-0.1-0.5-0.4-0.8-0.6c0.3-0.1,0.6-0.4,0.9-0.4c1.9,0,3.9,0,5.8,0c0.3,0,0.6,0.2,0.9,0.3c-0.2,0.3-0.4,0.6-0.6,0.7
		c-1.1,0.4-1.6,1.3-1.7,2.4c-0.7,5.4-1.3,10.7-2,16.1c0,0.1,0,0.2-0.1,0.5c-0.3-0.3-0.6-0.5-0.8-0.7c-1.8-2.4-3.6-4.9-5.4-7.3
		c-1.8-2.4-3.5-4.8-5.3-7.2c-0.1-0.2-0.3-0.3-0.6-0.7c-0.1,0.5-0.2,0.8-0.2,1.1c-0.3,3.4-0.6,6.7-0.9,10.1c-0.1,1.9,0.4,2.6,2.3,3
		c0.4,0.1,0.8,0.4,1.2,0.7c-0.4,0.1-0.9,0.3-1.3,0.3c-1.8,0-3.7,0-5.5,0c-0.3,0-0.5-0.1-0.8-0.2c0.2-0.2,0.3-0.5,0.6-0.6
		c1.1-0.5,1.7-1.4,1.9-2.6c0.5-3.7,1-7.5,1.5-11.2c0.2-1.4-0.5-2.8-2-3.4c-0.5-0.2-1-0.3-1.5-0.6c-0.2-0.1-0.3-0.4-0.4-0.5
		c0.2-0.1,0.4-0.4,0.6-0.4c1.6,0,3.2,0,4.9,0.1c0.4,0,0.8,0.4,1.1,0.7c3,3.9,5.9,7.9,8.9,11.8c0.3,0.5,0.7,0.9,1.1,1.3
		C186,26,186.1,25.9,186.2,25.9z"/>
	<path class="st1" d="M241.9,56.7c0.1-0.7,0.2-1.3,0.3-1.8c0.2-2.4,0.5-4.9,0.7-7.3c0.2-2.4-0.3-3-2.6-3.7c-0.1,0-0.1,0-0.2-0.1
		c-0.3-0.2-0.5-0.4-0.8-0.6c0.3-0.1,0.7-0.4,1-0.4c1.9,0,3.7,0,5.6,0c0.3,0,0.6,0.2,0.9,0.3c-0.2,0.3-0.4,0.7-0.6,0.8
		c-1.3,0.5-1.6,1.5-1.8,2.7c-0.6,5.2-1.3,10.3-1.9,15.5c0,0.2-0.1,0.4-0.1,0.5c-0.1,0-0.2,0.1-0.2,0.1c-3.9-5.2-7.7-10.4-11.6-15.6
		c-0.1,0-0.2,0.1-0.2,0.1c0,0.2-0.1,0.4-0.1,0.6c-0.3,3.5-0.6,7-0.9,10.4c-0.1,1.7,0.6,2.5,2.2,2.9c0.5,0.1,0.9,0.4,1.3,0.7
		c-0.5,0.1-0.9,0.3-1.4,0.3c-1.8,0-3.6,0-5.4,0c-0.3,0-0.6-0.1-0.9-0.1c0-0.1,0-0.2-0.1-0.2c0.2-0.2,0.5-0.4,0.8-0.5
		c1.1-0.5,1.6-1.4,1.8-2.4c0.5-3.5,1-7.1,1.4-10.6c0.3-2.5-0.5-3.7-2.8-4.3c-0.4-0.1-1.1-0.6-1.1-0.7c0.1-0.7,0.8-0.4,1.3-0.4
		c1.3,0,2.5,0,3.8,0c0.7,0,1.1,0.2,1.6,0.7c3.1,4.2,6.2,8.4,9.4,12.6C241.4,56.2,241.6,56.4,241.9,56.7z"/>
	<path class="st1" d="M118.8,56.4c0.1-0.6,0.2-1.2,0.3-1.8c0.2-2.6,0.5-5.1,0.7-7.7c0.1-1.9-0.5-2.6-2.4-3.2c-0.1,0-0.2,0-0.3-0.1
		c-0.3-0.2-0.6-0.5-0.9-0.7c0.3-0.1,0.7-0.4,1-0.4c2,0,3.9,0,5.9,0c0.2,0,0.5,0.2,0.7,0.3c-0.1,0.2-0.2,0.6-0.4,0.6
		c-1.6,0.5-1.9,1.9-2,3.3c-0.6,5-1.2,10-1.8,15c0,0.2-0.1,0.4-0.4,0.8c-3.9-5.2-7.8-10.4-11.8-15.7c-0.1,0.5-0.2,0.7-0.2,1
		c-0.3,3.4-0.6,6.8-0.9,10.2c-0.1,2,0.3,2.5,2.3,3.1c0.4,0.1,0.8,0.5,1.2,0.7c-0.4,0.1-0.8,0.2-1.3,0.2c-1.8,0-3.6,0-5.5,0.1
		c-0.3,0-0.6,0-0.9,0c0-0.1-0.1-0.2-0.1-0.3c0.2-0.2,0.4-0.5,0.6-0.6c1.3-0.4,1.8-1.4,2-2.6c0.5-3.6,1-7.2,1.4-10.8
		c0.2-2.2-0.6-3.5-2.7-4c-0.4-0.1-1.1-0.6-1.1-0.8c0.2-0.7,0.8-0.4,1.3-0.4c1.2,0,2.4,0.1,3.5,0c0.8-0.1,1.4,0.2,1.8,0.9
		c3,4,6,8,9,12c0.2,0.3,0.5,0.6,0.8,0.9C118.6,56.4,118.7,56.4,118.8,56.4z"/>
	<path class="st1" d="M186.7,87.9c0.1,0.2,0.2,0.2,0.2,0.2c0.4,1.8-1.7,4.6-3.6,4.6c-2.8,0-5.5-0.1-8.3-0.1c-1.5,0-2.9,0.1-4.4,0.1
		c-0.3,0-0.5-0.2-0.8-0.3c0.2-0.2,0.4-0.5,0.6-0.6c1.3-0.3,1.7-1.2,1.8-2.4c0.5-4.2,1.1-8.3,1.6-12.5c0-0.4,0.1-0.7,0.1-1.1
		c0.1-1-0.2-1.5-1.3-1.7c-0.3-0.1-0.7-0.1-1-0.2c-0.1-0.1-0.2-0.2-0.4-0.4c0.1-0.1,0.3-0.3,0.4-0.3c0.6,0,1.2,0,1.8,0
		c4.3,0,8.6,0,12.8,0c0.7,0,1.1,0.1,1,1c-0.1,0.9,0,1.7-0.1,2.6c0,0.3-0.1,0.5-0.1,0.8c-0.1,0-0.2,0.1-0.3,0.1
		c-0.2-0.3-0.4-0.6-0.5-0.9c-0.2-1.5-1.1-2.2-2.6-2.2c-1.8-0.1-3.6-0.1-5.4-0.2c-0.6,0-1.1,0.3-1.1,0.9c-0.3,2-0.5,4-0.7,6
		c-0.1,0.5,0.3,0.8,0.8,0.8c1.1,0,2.2,0,3.3,0c1.3-0.1,2.2-0.7,2.8-1.9c0.1-0.3,0.5-0.4,0.7-0.6c0.1,0.3,0.2,0.6,0.2,0.8
		c-0.2,1.8-0.4,3.6-0.6,5.4c0,0.1-0.1,0.2-0.3,0.5c-0.2-0.5-0.5-0.8-0.6-1.2c-0.3-1.1-1-1.9-2.2-2c-1-0.1-2.1-0.1-3.1-0.1
		c-0.6,0-1.2,0.2-1.3,0.9c-0.2,2-0.4,4-0.5,6c0,0.9,0.4,1.4,1.4,1.4c3.4,0.3,6.5-0.3,8.8-3.1C186.2,88.3,186.5,88.1,186.7,87.9z"/>
	<path class="st1" d="M171.7,138.5c-1.4,1.3-3,2.1-4.9,2.1c-1.5,0-2.4-0.8-2.6-2.2c-0.3-2,0.5-3.5,2.4-4.5c1.2-0.7,2.5-1.3,3.8-1.8
		c0.7-0.3,1.2-0.8,1-1.7c-0.1-0.5-0.1-1-0.1-1.5c-0.2-1.1-0.7-1.5-1.7-1.6c-0.5,0-1,0.1-1.5,0.2c-0.8,0.2-1.2,0.6-1,1.6
		c0.2,1.5-0.4,2.4-1.8,2.4c-0.9,0-1.5-0.5-1.3-1.4c0.2-0.8,0.6-1.7,1.2-2.2c2-1.8,4.4-2.5,7.1-2.1c1.7,0.3,2.5,1.2,2.6,2.9
		c0.1,2.4,0.1,4.8,0.1,7.2c0,0.5,0,1,0.1,1.4c0.1,0.4,0.3,0.9,0.6,1c0.3,0.1,0.8-0.2,1.2-0.3c0.1,0,0.2-0.2,0.3-0.3
		c0.8,0.2,0.7,0.6,0.4,1.2C176.4,140.8,173,141.5,171.7,138.5z M171.5,132.6c-1,0.6-1.8,1-2.5,1.5c-1,0.7-1.3,1.7-1.2,2.9
		c0.1,1,0.7,1.6,1.5,1.7c0.9,0,2.2-0.9,2.2-1.7C171.5,135.6,171.5,134.2,171.5,132.6z"/>
	<path class="st1" d="M133.1,42.6c2.6,0,5.1,0,7.7,0c0.6,0,0.9,0.1,0.9,0.8c0,1,0,2.1,0,3.1c0,0.2-0.2,0.4-0.2,0.6
		c-0.2-0.1-0.5-0.2-0.6-0.4c-0.2-0.5-0.4-1-0.5-1.5c-0.3-0.8-0.8-1.4-1.7-1.3c-0.8,0-1.6,0-2.4,0c-1.2,0-1.6,0.3-1.7,1.5
		c-0.5,4.3-1,8.5-1.4,12.8c0,0.4,0,0.8,0,1.3c0.1,1,0.6,1.4,1.5,1.6c0.2,0,0.4,0,0.5,0.1c0.2,0.1,0.4,0.3,0.7,0.5
		c-0.3,0.1-0.5,0.4-0.8,0.4c-0.9,0-1.7-0.1-2.6-0.1c-1.4,0-2.7,0.1-4.1,0.1c-0.3,0-0.6,0-0.9-0.1c-0.1,0-0.3-0.3-0.3-0.4
		c0-0.1,0.2-0.3,0.3-0.3c1.8-0.2,1.9-1.5,2.1-2.9c0.2-2.1,0.5-4.3,0.8-6.4c0.3-2.2,0.6-4.5,0.9-6.7c0.1-0.7-0.1-1.2-0.9-1.2
		c-1.3,0-2.6,0.2-3.9,0.3c-0.9,0.1-1.4,0.8-1.7,1.7c-0.2,0.5-0.3,1.1-0.6,1.6c-0.1,0.2-0.4,0.4-0.7,0.5c-0.1-0.3-0.3-0.5-0.3-0.8
		c0.3-1.4,0.6-2.8,1-4.1c0.1-0.3,0.7-0.5,1.1-0.5c2.4,0,4.9,0.1,7.3,0.1c0.2,0,0.3,0,0.5,0C133.1,42.7,133.1,42.7,133.1,42.6z"/>
	<path class="st1" d="M157.8,49.8c-0.4-0.7-0.8-1.4-1.1-2.1c-0.7-1.6-1.5-3-3.2-3.8c-2.8-1.4-6.1-0.4-7.5,2.4
		c-1.9,3.8-2,7.6,0.2,11.3c2.1,3.7,6.4,3.5,9.1,0.9c0.4-0.4,0.8-0.9,1.3-1.4c0.2-0.2,0.5-0.2,0.7-0.3c0,0.3,0.1,0.7,0,0.8
		c-0.8,0.9-1.6,2-2.6,2.7c-3.3,2.5-7.6,2.4-10.7-0.3c-1.8-1.6-2.6-3.7-2.8-6c-0.3-4,1-7.4,4.2-9.9c2.9-2.3,6.3-2.4,9.7-0.9
		c0.3,0.1,0.6,0.3,1,0.5c0.5,0.3,0.9,0.5,1.5,0c0.4-0.3,0.8-0.2,0.8,0.3c0,1.8,0,3.5,0,5.3c0,0.1-0.1,0.1-0.1,0.2
		C158,49.7,157.9,49.8,157.8,49.8z"/>
	<path class="st1" d="M119.6,87.5c0,0,0.1,0.1,0.1,0.1c0.6,2-1.3,5-3.3,5.1c-1.8,0.1-3.6,0-5.4,0c-2.2,0-4.3,0-6.5,0.1
		c-0.3,0-0.5,0.1-0.7,0c-0.2-0.1-0.4-0.3-0.5-0.5c0-0.1,0.2-0.4,0.3-0.5c1.6-0.3,1.9-1.5,2.1-2.9c0.4-3.4,0.9-6.7,1.3-10.1
		c0.1-0.9,0.2-1.7,0.2-2.6c0-1.2-0.3-1.6-1.4-1.9c-0.4-0.1-0.7-0.3-1.1-0.4c0-0.1,0-0.2,0-0.3c0.3-0.1,0.7-0.3,1-0.3
		c2.2,0,4.3,0,6.5,0c0.2,0,0.5,0.2,0.7,0.3c-0.2,0.2-0.3,0.5-0.5,0.6c-1.2,0.4-1.6,1.4-1.7,2.6c-0.4,4-0.8,8-1.2,12
		c-0.2,1.7,0.5,2.4,2.2,2.5c2.9,0.1,5.4-0.8,7.2-3.2c0.2-0.3,0.3-0.6,0.5-1C119.3,87.2,119.4,87.4,119.6,87.5z"/>
	<path class="st1" d="M215.5,61.6c0.4-0.2,0.7-0.5,1-0.6c0.8-0.3,1.1-1,1.2-1.8c0.4-3.4,0.8-6.9,1.3-10.3c0.1-1.1,0.2-2.1,0.4-3.2
		c0.1-1.1-0.4-1.8-1.4-2.1c-0.2-0.1-0.4-0.1-0.6-0.2c-0.1-0.1-0.3-0.3-0.3-0.4c0-0.1,0.2-0.3,0.3-0.3c0.3-0.1,0.6-0.1,0.9-0.1
		c1.9,0,3.8,0,5.7,0.1c0.3,0,0.7,0.2,1,0.3c-0.3,0.2-0.5,0.6-0.8,0.7c-0.7,0.3-1.3,0.7-1.4,1.5c-0.5,4.5-1.1,9-1.5,13.5
		c-0.2,1.7,0.1,1.9,1.7,2.4c0.3,0.1,0.6,0.3,1.1,0.6C223.1,62.3,216.1,62.1,215.5,61.6z"/>
	<path class="st1" d="M97.9,73.5c1.3-0.1,2.6-0.1,3.9-0.2c0.3,0,0.5,0.2,0.8,0.3c-0.2,0.2-0.4,0.6-0.6,0.7c-1,0.3-1.5,0.8-1.6,1.9
		c-0.4,4.4-0.9,8.8-1.4,13.3c-0.2,1.5,0.2,2,1.6,2.4c0.1,0,0.2,0,0.3,0.1c0.2,0.2,0.4,0.4,0.7,0.6c-0.3,0.1-0.5,0.3-0.8,0.3
		c-2.1,0-4.3,0-6.4,0c-0.2,0-0.4,0-0.6-0.1c-0.2-0.1-0.4-0.2-0.4-0.4c0-0.2,0.2-0.5,0.3-0.5c1.4-0.4,1.6-1.4,1.7-2.6
		c0.5-4.2,1.1-8.3,1.6-12.5c0.1-1.1-0.2-2.4-1.6-2.5c-0.1,0-0.3-0.1-0.4-0.2c-0.2-0.1-0.3-0.3-0.4-0.5c0.2-0.1,0.4-0.3,0.6-0.3
		C96.1,73.3,97,73.4,97.9,73.5C97.9,73.5,97.9,73.5,97.9,73.5z"/>
	<path class="st1" d="M109.4,31.6c-1.2,0-2.4,0-3.5,0c0-0.1,0-0.2,0-0.2c1-0.2,1.1-1,1.2-1.9c0.2-2.1,0.4-4.3,0.7-6.4
		c0.1-1.2,0.5-2.4-1.5-2.5c0.1-0.1,0.1-0.1,0.2-0.2c1.2,0,2.4,0,3.7,0c-1.7,0.6-1.2,2.2-1.3,3.4c-0.3,2-0.5,1.7,1.5,1.7
		c1.3,0,2.6,0,3.9,0c0.6,0,0.8-0.2,0.8-0.8c0-0.8,0.1-1.6,0.2-2.4c0.1-0.9-0.1-1.4-1-1.6c-0.1,0-0.2-0.1-0.3-0.4c1.2,0,2.4,0,3.6,0
		c0,0,0,0.1,0,0.1c-1.2,0.5-1.2,1.5-1.3,2.6c-0.2,2.3-0.4,4.6-0.7,6.8c-0.1,0.9,0.2,1.3,1,1.3c0.2,0,0.3,0.1,0.4,0.4
		c-1.2,0-2.5,0-3.7,0c1.5-0.4,1.1-1.7,1.3-2.7c0.1-0.7,0.1-1.4,0.2-2.2c0.1-0.5-0.1-0.7-0.6-0.7c-1.6,0-3.2,0-4.9,0
		c-0.7,0-0.9,0.2-1,0.9c0,1-0.1,2-0.3,2.9c-0.1,0.8,0,1.3,1,1.4c0.1,0,0.3,0.1,0.4,0.2C109.5,31.5,109.5,31.5,109.4,31.6z"/>
	<path class="st1" d="M119.5,20.3c1,0,2,0,3.1,0c1.4,0,2.7,0,4.1-0.1c0.5,0,0.7,0.2,0.7,0.7c0,0.5,0,1.1,0,1.6c-0.1,0-0.2,0-0.2,0.1
		c-0.1-0.2-0.2-0.4-0.2-0.6c0-0.7-0.4-1-1-1.1c-1.2-0.1-2.4-0.1-3.6-0.1c-0.2,0-0.5,0.4-0.6,0.6c-0.2,1.1-0.3,2.2-0.4,3.2
		c-0.1,0.5,0.1,0.7,0.7,0.7c0.4,0,0.9,0,1.3,0c0.9,0,1.9,0.2,2.1-1.3c0.1,0.1,0.2,0.2,0.3,0.2c-0.1,1.1-0.2,2.2-0.4,3.3
		c-0.2-0.1-0.2-0.1-0.2-0.1c-0.2-1.4-0.2-1.4-1.9-1.4c-0.1,0-0.3,0-0.4,0c-1.6-0.1-1.6-0.2-1.8,1.7c-0.1,0.9-0.2,1.7-0.2,2.6
		c0,0.2,0.4,0.7,0.5,0.7c1.4-0.1,2.7-0.2,4.1-0.4c0.4-0.1,0.8-0.6,1.2-0.9c0.1-0.1,0.3-0.2,0.5-0.4c0,1-0.8,2.2-1.6,2.2
		c-2.3,0.1-4.5,0-6.9,0c1.2-0.3,1.1-1.2,1.2-2.1c0.3-2.5,0.6-4.9,1-7.4c0.1-0.9-0.4-1.3-1.2-1.5C119.4,20.5,119.4,20.4,119.5,20.3z"
		/>
	<path class="st1" d="M208,31.6c-0.9,0-2,0-3.1,0c0.1-0.1,0.1-0.3,0.2-0.3c1-0.2,1.1-0.7,0.8-1.5c-0.2-0.5-0.4-1.1-0.5-1.7
		c-0.1-0.7-0.5-0.8-1.2-0.8c-1.1,0-2.2,0-3.3,0c-0.5,0-0.9,0.2-1.1,0.7c-0.3,0.6-0.6,1.2-0.9,1.9c-0.4,0.9-0.3,1.1,0.6,1.3
		c0.1,0,0.2,0.1,0.3,0.3c-1,0-1.9,0-2.8,0c2-2,2.8-4.7,4.2-7c0.8-1.3,1.5-2.7,2.2-4c0.1-0.1,0.1-0.2,0.3-0.6c0.3,0.6,0.4,1,0.6,1.3
		c0.9,2.8,1.8,5.7,2.8,8.5C207.2,30.4,207.6,31,208,31.6z M204.8,26.6c-0.6-1.6-1.1-3-1.6-4.5c-0.1,0-0.2,0-0.3,0
		c-0.8,1.4-1.6,2.9-2.5,4.5C201.9,26.6,203.3,26.6,204.8,26.6z"/>
	<path class="st1" d="M213.7,31.6c-1.2,0-2.4,0-3.6,0c1.6-0.5,1.3-1.9,1.4-3c0.3-2.2,0.6-4.4,0.9-6.6c0.1-0.8-0.1-1-0.8-1
		c-0.4,0-0.8,0-1.3,0c-1.1-0.1-2,0.3-2.4,1.4c0,0.1-0.1,0.1-0.2,0.1c-0.2-1.4,0.6-2.2,1.8-2.2c2.4,0,4.9,0,7.3,0c1,0,1,0,1,1
		c0,0.4,0,0.8,0,1.3c-0.1,0-0.2,0-0.3,0c-0.1-0.2-0.2-0.4-0.2-0.5c0-0.9-0.5-1.1-1.3-1.1c-0.6,0-1.2,0-1.8,0c-0.5,0-0.7,0.2-0.8,0.7
		c-0.3,2.7-0.6,5.3-1,8c-0.1,0.9-0.1,1.6,1.1,1.6c0,0,0.1,0.1,0.1,0.1C213.7,31.5,213.7,31.5,213.7,31.6z"/>
	<path class="st1" d="M101.4,31.6c-1.3,0-2.4,0-3.6,0c1.2-0.4,1.2-1.4,1.3-2.4c0.3-2.4,0.6-4.9,0.9-7.3c0.1-0.7-0.1-0.9-0.8-0.9
		c-0.5,0-1,0-1.5,0c-1,0-1.8,0.3-2.1,1.3c0,0.1-0.1,0.1-0.1,0.2c0,0-0.1,0-0.2,0c-0.2-1.3,0.5-2.2,1.8-2.2c2.4,0,4.9,0,7.3-0.1
		c0.8,0,1.1,0.2,1,1c-0.1,0.4,0,0.8,0,1.2c-0.1,0-0.1,0-0.2,0.1c-0.1-0.2-0.1-0.4-0.2-0.7c-0.1-0.6-0.5-1-1.1-0.9
		c-3.3,0.1-2.6-0.5-3,2.5c-0.3,2.1-0.5,4.1-0.8,6.2c-0.1,0.9,0,1.6,1,1.7C101.3,31.4,101.3,31.5,101.4,31.6z"/>
</g>
</svg>
